<?xml version="1.0" encoding="utf-8"?>
<!-- Generator: Adobe Illustrator 16.0.4, SVG Export Plug-In . SVG Version: 6.00 Build 0)  -->
<!DOCTYPE svg PUBLIC "-//W3C//DTD SVG 1.1//EN" "http://www.w3.org/Graphics/SVG/1.1/DTD/svg11.dtd">
<svg version="1.1" id="Ebene_2" xmlns="http://www.w3.org/2000/svg" xmlns:xlink="http://www.w3.org/1999/xlink" x="0px" y="0px"
	 width="1130px" height="700px" viewBox="0 -5 1130 700" enable-background="new 0 -5 1130 700" xml:space="preserve">
<g>
	<defs>
		<path id="SVGID_1_" d="M783,310.333v157.5h151.333v-157.5H783z M917,452H809v-58h48.118v-79H916L917,452z"/>
	</defs>
	<clipPath id="SVGID_2_">
		<use xlink:href="#SVGID_1_"  overflow="visible"/>
	</clipPath>
	<g transform="matrix(1 0 0 1 0 0)" opacity="0.11" clip-path="url(#SVGID_2_)" enable-background="new    ">
		
			<image overflow="visible" width="517" height="646" xlink:href="41C0625032234831.png"  transform="matrix(0.2381 0 0 0.2385 802.8574 307.5117)">
		</image>
	</g>
</g>
<path fill="#A03838" d="M913.566,313.511h-53.852c-4.112,0-7.433,3.326-7.433,7.429v71.566h-40.849v0.001
	c-4.113,0-7.434,3.33-7.434,7.454v51.095c0,4.125,3.028,6.943,7.143,6.943h102c4.112,0,7.858-2.818,7.858-6.943V320.94
	C921.001,316.837,917.68,313.511,913.566,313.511z M916,452H809v-59h48.118v-78H916V452z"/>
<g opacity="0.7">
	<path fill="#FF8D7A" d="M428.722,315c1.808,0,3.277,1.474,3.277,3.284v54.45c0,1.801-1.47,3.266-3.277,3.266h-55.443
		c-1.809,0-3.279-1.465-3.279-3.266v-54.45c0-1.812,1.471-3.284,3.279-3.284H428.722 M428.722,313h-55.443
		c-2.921,0-5.279,2.36-5.279,5.284v54.45c0,2.903,2.358,5.266,5.279,5.266h55.443c2.919,0,5.277-2.361,5.277-5.266v-54.45
		C433.999,315.36,431.641,313,428.722,313L428.722,313z"/>
</g>
<g opacity="0.7">
	<path fill="#FF8D7A" d="M509.723,315c1.808,0,3.277,1.474,3.277,3.284v54.45c0,1.801-1.471,3.266-3.277,3.266H454.26
		c-1.797,0-3.26-1.465-3.26-3.266v-54.45c0-1.812,1.463-3.284,3.26-3.284H509.723 M509.723,313H454.26c-2.9,0-5.26,2.36-5.26,5.284
		v54.45c0,2.903,2.358,5.266,5.26,5.266h55.463c2.92,0,5.277-2.361,5.277-5.266v-54.45C515.002,315.36,512.643,313,509.723,313
		L509.723,313z"/>
</g>
<g opacity="0.7">
	<path fill="#FF8D7A" d="M590.741,315c1.797,0,3.259,1.474,3.259,3.284v54.45c0,1.801-1.462,3.266-3.259,3.266H535.26
		c-1.798,0-3.26-1.465-3.26-3.266v-54.45c0-1.812,1.462-3.284,3.26-3.284H590.741 M590.741,313H535.26
		c-2.901,0-5.26,2.36-5.26,5.284v54.45c0,2.903,2.357,5.266,5.26,5.266h55.481c2.899,0,5.259-2.361,5.259-5.266v-54.45
		C595.999,315.36,593.641,313,590.741,313L590.741,313z"/>
</g>
<g opacity="0.7">
	<path fill="#FF8D7A" d="M670.742,315c1.797,0,3.258,1.474,3.258,3.284v54.45c0,1.801-1.461,3.266-3.258,3.266h-55.463
		c-1.809,0-3.279-1.465-3.279-3.266v-54.45c0-1.812,1.472-3.284,3.279-3.284H670.742 M670.742,313h-55.463
		c-2.922,0-5.279,2.36-5.279,5.284v54.45c0,2.903,2.357,5.266,5.279,5.266h55.463c2.898,0,5.258-2.361,5.258-5.266v-54.45
		C676,315.36,673.642,313,670.742,313L670.742,313z"/>
</g>
<g opacity="0.7">
	<path fill="#FF8D7A" d="M751.722,315c1.808,0,3.277,1.474,3.277,3.284v54.45c0,1.801-1.471,3.266-3.277,3.266h-55.442
		c-1.81,0-3.279-1.465-3.279-3.266v-54.45c0-1.812,1.471-3.284,3.279-3.284H751.722 M751.722,313h-55.442
		c-2.921,0-5.279,2.36-5.279,5.284v54.45c0,2.903,2.358,5.266,5.279,5.266h55.442c2.919,0,5.277-2.361,5.277-5.266v-54.45
		C756.999,315.36,754.641,313,751.722,313L751.722,313z"/>
</g>
<g opacity="0.7">
	<path fill="#FF8D7A" d="M832.721,315c1.809,0,3.279,1.474,3.279,3.284v54.45c0,1.801-1.472,3.266-3.279,3.266h-55.46
		c-1.798,0-3.261-1.465-3.261-3.266v-54.45c0-1.812,1.463-3.284,3.261-3.284H832.721 M832.721,313h-55.46
		c-2.9,0-5.261,2.36-5.261,5.284v54.45c0,2.903,2.359,5.266,5.261,5.266h55.46c2.921,0,5.279-2.361,5.279-5.266v-54.45
		C838,315.36,835.642,313,832.721,313L832.721,313z"/>
</g>
<g opacity="0.7">
	<path fill="#FF8D7A" d="M299.743,394c1.796,0,3.257,1.475,3.257,3.284v54.43c0,1.812-1.461,3.286-3.257,3.286h-55.486
		c-1.796,0-3.257-1.475-3.257-3.286v-54.43c0-1.811,1.461-3.284,3.257-3.284H299.743 M299.743,392h-55.486
		c-2.899,0-5.257,2.381-5.257,5.284v54.43c0,2.926,2.357,5.286,5.257,5.286h55.486c2.898,0,5.257-2.36,5.257-5.286v-54.43
		C304.999,394.381,302.641,392,299.743,392L299.743,392z"/>
</g>
<g opacity="0.7">
	<path fill="#FF8D7A" d="M380.742,394c1.796,0,3.258,1.475,3.258,3.284v54.43c0,1.812-1.462,3.286-3.258,3.286h-55.461
		c-1.81,0-3.281-1.475-3.281-3.286v-54.43c0-1.811,1.472-3.284,3.281-3.284H380.742 M380.742,392h-55.461
		c-2.924,0-5.281,2.381-5.281,5.284v54.43c0,2.926,2.357,5.286,5.281,5.286h55.461c2.899,0,5.258-2.36,5.258-5.286v-54.43
		C386,394.381,383.642,392,380.742,392L380.742,392z"/>
</g>
<g opacity="0.7">
	<path fill="#FF8D7A" d="M783.783,473.793c1.791,0,3.248,1.465,3.248,3.265v54.448c0,1.812-1.457,3.287-3.248,3.287H325.282
		c-1.793,0-3.251-1.475-3.251-3.287v-54.448c0-1.8,1.458-3.265,3.251-3.265H783.783 M783.783,471.793H325.282
		c-2.907,0-5.251,2.361-5.251,5.265v54.448c0,2.926,2.344,5.287,5.251,5.287h458.501c2.902,0,5.248-2.361,5.248-5.287v-54.448
		C789.031,474.154,786.688,471.793,783.783,471.793L783.783,471.793z"/>
</g>
<g opacity="0.7">
	<path fill="#FF8D7A" d="M461.724,394c1.808,0,3.276,1.475,3.276,3.284v54.43c0,1.812-1.47,3.286-3.276,3.286h-55.446
		c-1.808,0-3.278-1.475-3.278-3.286v-54.43c0-1.811,1.471-3.284,3.278-3.284H461.724 M461.724,392h-55.446
		c-2.921,0-5.278,2.381-5.278,5.284v54.43c0,2.926,2.357,5.286,5.278,5.286h55.445c2.919,0,5.276-2.36,5.276-5.286v-54.43
		C467,394.381,464.643,392,461.724,392L461.724,392z"/>
</g>
<g opacity="0.7">
	<path fill="#FF8D7A" d="M541.723,394c1.808,0,3.277,1.475,3.277,3.284v54.43c0,1.812-1.471,3.286-3.277,3.286H486.26
		c-1.797,0-3.26-1.475-3.26-3.286v-54.43c0-1.811,1.463-3.284,3.26-3.284H541.723 M541.723,392H486.26c-2.9,0-5.26,2.381-5.26,5.284
		v54.43c0,2.926,2.358,5.286,5.26,5.286h55.463c2.921,0,5.277-2.36,5.277-5.286v-54.43C547,394.381,544.644,392,541.723,392
		L541.723,392z"/>
</g>
<g opacity="0.7">
	<path fill="#FF8D7A" d="M622.741,394c1.797,0,3.259,1.475,3.259,3.284v54.43c0,1.812-1.462,3.286-3.259,3.286H567.26
		c-1.798,0-3.26-1.475-3.26-3.286v-54.43c0-1.811,1.462-3.284,3.26-3.284H622.741 M622.741,392H567.26
		c-2.901,0-5.26,2.381-5.26,5.284v54.43c0,2.926,2.357,5.286,5.26,5.286h55.481c2.9,0,5.259-2.36,5.259-5.286v-54.43
		C627.999,394.381,625.642,392,622.741,392L622.741,392z"/>
</g>
<g opacity="0.7">
	<path fill="#FF8D7A" d="M702.743,394c1.796,0,3.257,1.475,3.257,3.284v54.43c0,1.812-1.461,3.286-3.257,3.286h-55.462
		c-1.811,0-3.281-1.475-3.281-3.286v-54.43c0-1.811,1.472-3.284,3.281-3.284H702.743 M702.743,392h-55.462
		c-2.924,0-5.281,2.381-5.281,5.284v54.43c0,2.926,2.357,5.286,5.281,5.286h55.462c2.899,0,5.257-2.36,5.257-5.286v-54.43
		C708,394.381,705.644,392,702.743,392L702.743,392z"/>
</g>
<g opacity="0.7">
	<path fill="#FF8D7A" d="M783.722,394c1.808,0,3.277,1.475,3.277,3.284v54.43c0,1.812-1.471,3.286-3.277,3.286h-55.442
		c-1.81,0-3.279-1.475-3.279-3.286v-54.43c0-1.811,1.471-3.284,3.279-3.284H783.722 M783.722,392h-55.442
		c-2.898,0-5.279,2.381-5.279,5.284v54.43c0,2.926,2.381,5.286,5.279,5.286h55.442c2.919,0,5.277-2.36,5.277-5.286v-54.43
		C788.999,394.381,786.641,392,783.722,392L783.722,392z"/>
</g>
<g opacity="0.7">
	<path fill="#FF8D7A" d="M310.743,235c1.796,0,3.257,1.474,3.257,3.285v54.448c0,1.801-1.461,3.267-3.257,3.267h-55.486
		c-1.796,0-3.257-1.466-3.257-3.267v-54.448c0-1.812,1.461-3.285,3.257-3.285H310.743 M310.743,233h-55.486
		c-2.898,0-5.257,2.361-5.257,5.285v54.448c0,2.905,2.358,5.267,5.257,5.267h55.486c2.899,0,5.257-2.361,5.257-5.267v-54.448
		C315.999,235.362,313.642,233,310.743,233L310.743,233z"/>
</g>
<g opacity="0.7">
	<path fill="#FF8D7A" d="M552.721,235c1.809,0,3.279,1.474,3.279,3.285v54.448c0,1.801-1.472,3.267-3.279,3.267h-55.462
		c-1.797,0-3.259-1.466-3.259-3.267v-54.448c0-1.812,1.462-3.285,3.259-3.285H552.721 M552.721,233h-55.462
		c-2.901,0-5.259,2.361-5.259,5.285v54.448c0,2.905,2.356,5.267,5.259,5.267h55.462c2.921,0,5.279-2.361,5.279-5.267v-54.448
		C558,235.362,555.642,233,552.721,233L552.721,233z"/>
</g>
<g opacity="0.7">
	<path fill="#FF8D7A" d="M632.742,235c1.797,0,3.258,1.474,3.258,3.285v54.448c0,1.801-1.461,3.267-3.258,3.267h-55.483
		c-1.797,0-3.259-1.466-3.259-3.267v-54.448c0-1.812,1.462-3.285,3.259-3.285H632.742 M632.742,233h-55.483
		c-2.901,0-5.259,2.361-5.259,5.285v54.448c0,2.905,2.356,5.267,5.259,5.267h55.483c2.898,0,5.258-2.361,5.258-5.267v-54.448
		C638,235.362,635.642,233,632.742,233L632.742,233z"/>
</g>
<g opacity="0.7">
	<path fill="#FF8D7A" d="M794.721,235c1.809,0,3.279,1.474,3.279,3.285v54.448c0,1.801-1.472,3.267-3.279,3.267H739.26
		c-1.799,0-3.26-1.466-3.26-3.267v-54.448c0-1.812,1.461-3.285,3.26-3.285H794.721 M794.721,233H739.26
		c-2.899,0-5.26,2.361-5.26,5.285v54.448c0,2.905,2.359,5.267,5.26,5.267h55.461c2.923,0,5.279-2.361,5.279-5.267v-54.448
		C800,235.362,797.644,233,794.721,233L794.721,233z"/>
</g>
<g opacity="0.7">
	<path fill="#FF8D7A" d="M875.743,235c1.795,0,3.257,1.474,3.257,3.285v54.448c0,1.801-1.462,3.267-3.257,3.267h-55.484
		c-1.797,0-3.259-1.466-3.259-3.267v-54.448c0-1.812,1.462-3.285,3.259-3.285H875.743 M875.743,233h-55.484
		c-2.898,0-5.259,2.361-5.259,5.285v54.448c0,2.905,2.359,5.267,5.259,5.267h55.484c2.898,0,5.257-2.361,5.257-5.267v-54.448
		C880.999,235.362,878.642,233,875.743,233L875.743,233z"/>
</g>
<g opacity="0.7">
	<path fill="#FF8D7A" d="M955.742,235c1.797,0,3.258,1.474,3.258,3.285v54.448c0,1.801-1.461,3.267-3.258,3.267h-55.459
		c-1.812,0-3.283-1.466-3.283-3.267v-54.448c0-1.812,1.473-3.285,3.283-3.285H955.742 M955.742,233h-55.459
		c-2.924,0-5.283,2.361-5.283,5.285v54.448c0,2.905,2.359,5.267,5.283,5.267h55.459c2.899,0,5.258-2.361,5.258-5.267v-54.448
		C961,235.362,958.643,233,955.742,233L955.742,233z"/>
</g>
<linearGradient id="SVGID_3_" gradientUnits="userSpaceOnUse" x1="566" y1="679.8535" x2="566" y2="30.4998">
	<stop  offset="0" style="stop-color:#FF8D7A;stop-opacity:0"/>
	<stop  offset="1" style="stop-color:#FF8D7A;stop-opacity:0.8"/>
</linearGradient>
<path opacity="0.7" fill="url(#SVGID_3_)" enable-background="new    " d="M1092,30H39C21.212,30,7,44.193,7,62v634h64V95h989v601
	h65V62.255C1125,44.448,1109.788,30,1092,30z M39.03,409c-8.552,0-15.5-6.944-15.5-15.51c0-8.546,6.948-15.49,15.5-15.49
	c8.572,0,15.5,6.944,15.5,15.49C54.53,402.056,47.603,409,39.03,409z M1097.905,402.353c0,2.979-2.465,5.397-5.5,5.397
	c-3.036,0-5.5-2.418-5.5-5.397v-43.204c0-2.981,2.464-5.397,5.5-5.397c3.035,0,5.5,2.416,5.5,5.397V402.353z"/>
<linearGradient id="SVGID_4_" gradientUnits="userSpaceOnUse" x1="-318.3926" y1="239.938" x2="-214.2171" y2="155.5423" gradientTransform="matrix(1 0 0 -1 679 506.1152)">
	<stop  offset="0.1523" style="stop-color:#000000"/>
	<stop  offset="1" style="stop-color:#000000;stop-opacity:0"/>
</linearGradient>
<polygon opacity="0.1" fill="url(#SVGID_4_)" enable-background="new    " points="399.089,235.472 337.247,299.61 546.205,470.394 
	546.205,476.734 701.205,603.984 701.205,482.394 "/>
<linearGradient id="SVGID_5_" gradientUnits="userSpaceOnUse" x1="-365.4224" y1="164.8555" x2="-234.0315" y2="58.4122" gradientTransform="matrix(1 0 0 -1 679 506.1152)">
	<stop  offset="0.1674" style="stop-color:#000000"/>
	<stop  offset="1" style="stop-color:#000000;stop-opacity:0"/>
</linearGradient>
<polygon opacity="0.1" fill="url(#SVGID_5_)" enable-background="new    " points="546.205,476.734 546.205,470.394 
	356.584,315.414 289.003,376.237 404.205,470.394 404.205,472.596 658.701,681.54 658.701,569.09 "/>
<linearGradient id="SVGID_6_" gradientUnits="userSpaceOnUse" x1="-483.0498" y1="245.0928" x2="-377.7805" y2="159.8112" gradientTransform="matrix(1 0 0 -1 679 506.1152)">
	<stop  offset="0.2408" style="stop-color:#000000"/>
	<stop  offset="1" style="stop-color:#000000;stop-opacity:0"/>
</linearGradient>
<polygon opacity="0.1" fill="url(#SVGID_6_)" enable-background="new    " points="238.326,233.472 171.25,296.154 171.25,297.159 
	395.442,480.394 395.442,482.944 540.442,601.984 540.442,480.394 "/>
<linearGradient id="SVGID_7_" gradientUnits="userSpaceOnUse" x1="-243.1045" y1="244.9448" x2="-137.8864" y2="159.7047" gradientTransform="matrix(1 0 0 -1 679 506.1152)">
	<stop  offset="0.1887" style="stop-color:#000000"/>
	<stop  offset="1" style="stop-color:#000000;stop-opacity:0"/>
</linearGradient>
<polygon opacity="0.1" fill="url(#SVGID_7_)" enable-background="new    " points="478.089,233.472 412.25,294.998 412.25,298.17 
	635.205,480.394 627.429,476.56 780.205,601.984 780.205,480.394 "/>
<linearGradient id="SVGID_8_" gradientUnits="userSpaceOnUse" x1="-445.4268" y1="165.543" x2="-305.428" y2="52.1261" gradientTransform="matrix(1 0 0 -1 679 506.1152)">
	<stop  offset="0.2923" style="stop-color:#000000"/>
	<stop  offset="1" style="stop-color:#000000;stop-opacity:0"/>
</linearGradient>
<polygon opacity="0.1" fill="url(#SVGID_8_)" enable-background="new    " points="275.953,313.027 208.781,375.819 434.07,559.949 
	434.07,563.314 578.07,681.54 578.07,559.949 "/>
<g opacity="0.9">
	<path fill="#FF8D7A" d="M408.209,363.807c-0.193,0-0.378-0.035-0.553-0.106c-0.176-0.071-0.328-0.172-0.457-0.301
		c-0.129-0.13-0.23-0.277-0.307-0.445c-0.074-0.169-0.112-0.351-0.112-0.543v-12.645c0-0.192,0.038-0.376,0.112-0.548
		c0.076-0.172,0.178-0.319,0.307-0.444c0.129-0.126,0.281-0.228,0.457-0.302c0.175-0.075,0.359-0.112,0.553-0.112h3.824
		c1.39,0,2.6,0.174,3.631,0.521s1.889,0.853,2.572,1.514c0.685,0.663,1.193,1.479,1.531,2.444c0.336,0.966,0.504,2.069,0.504,3.31
		c0,1.239-0.185,2.335-0.554,3.286c-0.368,0.952-0.899,1.753-1.595,2.401c-0.694,0.647-1.547,1.139-2.557,1.471
		c-1.011,0.334-2.152,0.5-3.428,0.5H408.209L408.209,363.807z M409.638,361.841h2.429c0.931,0,1.724-0.131,2.38-0.392
		c0.653-0.262,1.189-0.641,1.604-1.134c0.415-0.494,0.719-1.097,0.908-1.806s0.284-1.515,0.284-2.417
		c0-0.995-0.122-1.854-0.365-2.578c-0.243-0.724-0.602-1.32-1.074-1.794c-0.472-0.473-1.057-0.82-1.751-1.048
		c-0.693-0.225-1.488-0.338-2.385-0.338h-2.03V361.841z"/>
</g>
<g opacity="0.9">
	<path fill="#FF8D7A" d="M491.143,349.777c0-0.2,0.037-0.39,0.113-0.564c0.074-0.175,0.177-0.325,0.307-0.451
		c0.129-0.125,0.276-0.224,0.445-0.295c0.168-0.07,0.346-0.106,0.531-0.106h7.412c0.179,0,0.335,0.029,0.467,0.092
		c0.133,0.061,0.244,0.141,0.334,0.241c0.089,0.101,0.155,0.213,0.198,0.339c0.043,0.125,0.063,0.256,0.063,0.392
		c0,0.129-0.021,0.258-0.063,0.387c-0.043,0.13-0.109,0.243-0.198,0.345c-0.09,0.101-0.201,0.181-0.334,0.241
		c-0.132,0.062-0.288,0.092-0.467,0.092h-5.919v4.274h5.618c0.179,0,0.335,0.03,0.467,0.093c0.133,0.061,0.244,0.141,0.334,0.24
		c0.089,0.102,0.154,0.215,0.197,0.345c0.043,0.129,0.064,0.258,0.064,0.387c0,0.136-0.021,0.269-0.064,0.396
		c-0.043,0.128-0.108,0.243-0.197,0.345c-0.09,0.101-0.201,0.181-0.334,0.241c-0.132,0.062-0.288,0.092-0.467,0.092h-5.618v5.521
		c0,0.229-0.041,0.432-0.124,0.606c-0.082,0.176-0.191,0.32-0.327,0.436s-0.292,0.2-0.468,0.258
		c-0.176,0.059-0.354,0.086-0.531,0.086s-0.354-0.027-0.526-0.086c-0.172-0.058-0.325-0.144-0.462-0.258
		c-0.136-0.114-0.245-0.26-0.328-0.436c-0.082-0.176-0.123-0.377-0.123-0.606V349.777z"/>
</g>
<g opacity="0.9">
	<path fill="#FF8D7A" d="M578.848,355.675c0.381,0,0.648,0.104,0.807,0.307c0.156,0.204,0.236,0.495,0.236,0.876v5.049
		c0,0.466-0.121,0.827-0.36,1.085s-0.538,0.415-0.896,0.473c-0.329,0.102-0.692,0.191-1.09,0.273
		c-0.397,0.083-0.805,0.155-1.22,0.221s-0.825,0.114-1.229,0.15c-0.404,0.035-0.778,0.054-1.122,0.054
		c-1.168,0-2.229-0.161-3.181-0.483c-0.952-0.321-1.768-0.813-2.442-1.477c-0.679-0.663-1.2-1.501-1.568-2.515
		c-0.369-1.014-0.555-2.212-0.555-3.594c0-0.745,0.069-1.461,0.211-2.147c0.139-0.688,0.353-1.33,0.639-1.929
		s0.646-1.143,1.08-1.633c0.433-0.491,0.941-0.912,1.525-1.263c0.582-0.352,1.241-0.623,1.977-0.816
		c0.732-0.192,1.545-0.29,2.433-0.29c0.854,0,1.671,0.075,2.454,0.227c0.785,0.149,1.495,0.357,2.133,0.623
		c0.236,0.101,0.408,0.237,0.517,0.413c0.106,0.176,0.161,0.363,0.161,0.563c0,0.136-0.023,0.271-0.069,0.402
		c-0.047,0.133-0.117,0.251-0.21,0.354c-0.093,0.104-0.204,0.188-0.333,0.252c-0.129,0.064-0.272,0.098-0.43,0.098
		c-0.044,0-0.091-0.004-0.141-0.012c-0.05-0.007-0.101-0.018-0.149-0.031c-0.295-0.071-0.603-0.143-0.924-0.21
		c-0.322-0.067-0.646-0.129-0.968-0.183c-0.321-0.055-0.64-0.096-0.95-0.124c-0.312-0.027-0.601-0.043-0.864-0.043
		c-0.909,0-1.686,0.146-2.326,0.44c-0.642,0.294-1.163,0.702-1.568,1.225c-0.403,0.522-0.698,1.14-0.886,1.849
		s-0.279,1.481-0.279,2.319c0,0.968,0.086,1.817,0.258,2.552c0.173,0.733,0.451,1.349,0.839,1.843
		c0.387,0.494,0.888,0.866,1.504,1.117s1.368,0.376,2.256,0.376c0.494,0,0.993-0.036,1.499-0.107
		c0.504-0.071,0.993-0.165,1.466-0.279v-4.179h-2.492c-0.149,0-0.282-0.026-0.396-0.081c-0.114-0.053-0.209-0.123-0.285-0.209
		c-0.074-0.086-0.13-0.185-0.166-0.295c-0.036-0.111-0.054-0.225-0.054-0.339s0.018-0.227,0.054-0.333
		c0.036-0.107,0.092-0.204,0.166-0.29c0.076-0.086,0.171-0.154,0.285-0.204s0.247-0.075,0.396-0.075H578.848L578.848,355.675z"/>
</g>
<g opacity="0.9">
	<path fill="#FF8D7A" d="M658.329,349.767c0-0.229,0.041-0.43,0.123-0.602c0.083-0.172,0.192-0.317,0.328-0.435
		c0.136-0.119,0.29-0.206,0.462-0.265c0.172-0.058,0.351-0.086,0.537-0.086c0.179,0,0.354,0.028,0.525,0.086
		c0.172,0.059,0.326,0.145,0.462,0.258c0.136,0.114,0.245,0.261,0.327,0.437c0.083,0.175,0.124,0.377,0.124,0.605v12.634
		c0,0.229-0.041,0.432-0.124,0.605c-0.082,0.176-0.19,0.321-0.327,0.437c-0.136,0.114-0.292,0.199-0.468,0.258
		c-0.175,0.058-0.354,0.086-0.531,0.086s-0.354-0.028-0.525-0.086c-0.172-0.059-0.326-0.145-0.462-0.258
		c-0.137-0.114-0.245-0.261-0.328-0.437c-0.082-0.175-0.123-0.377-0.123-0.605v-5.457h-6.875v5.457c0,0.229-0.041,0.432-0.123,0.605
		c-0.083,0.176-0.192,0.321-0.328,0.437c-0.136,0.114-0.292,0.199-0.467,0.258c-0.177,0.058-0.354,0.086-0.532,0.086
		s-0.354-0.028-0.525-0.086c-0.173-0.059-0.326-0.145-0.463-0.258c-0.136-0.114-0.244-0.261-0.326-0.437
		c-0.084-0.175-0.125-0.377-0.125-0.605v-12.634c0-0.229,0.041-0.43,0.125-0.602c0.082-0.172,0.19-0.317,0.326-0.436
		c0.137-0.118,0.292-0.205,0.469-0.264c0.175-0.058,0.353-0.086,0.53-0.086c0.179,0,0.354,0.028,0.526,0.086
		c0.172,0.059,0.326,0.145,0.462,0.258c0.136,0.114,0.245,0.261,0.328,0.437c0.082,0.175,0.123,0.377,0.123,0.605v4.898h6.875
		V349.767z"/>
</g>
<g opacity="0.9">
	<path fill="#FF8D7A" d="M739.932,349.734c0-0.229,0.041-0.431,0.124-0.603c0.082-0.172,0.191-0.314,0.327-0.43
		c0.137-0.115,0.292-0.2,0.469-0.258c0.175-0.059,0.353-0.086,0.53-0.086c0.179,0,0.354,0.027,0.526,0.086
		c0.172,0.058,0.326,0.144,0.462,0.258s0.245,0.258,0.328,0.43c0.082,0.172,0.123,0.372,0.123,0.603v9.312
		c0,0.917-0.138,1.697-0.414,2.342c-0.275,0.646-0.649,1.171-1.122,1.579s-1.021,0.705-1.645,0.893
		c-0.623,0.187-1.281,0.278-1.977,0.278c-0.444,0-0.877-0.052-1.3-0.154c-0.423-0.104-0.821-0.259-1.198-0.463
		c-0.375-0.203-0.716-0.461-1.02-0.769c-0.306-0.308-0.559-0.666-0.759-1.074c-0.192-0.258-0.29-0.512-0.29-0.763
		c0-0.15,0.032-0.288,0.098-0.413c0.063-0.126,0.147-0.235,0.252-0.328c0.104-0.093,0.221-0.165,0.35-0.215s0.262-0.075,0.397-0.075
		c0.122,0,0.241,0.025,0.359,0.075c0.117,0.05,0.225,0.133,0.316,0.247c0.265,0.552,0.612,0.993,1.042,1.327
		c0.43,0.332,0.956,0.499,1.579,0.499c0.795,0,1.399-0.256,1.814-0.77c0.415-0.512,0.623-1.314,0.623-2.411v-9.118H739.932z"/>
</g>
<g opacity="0.9">
	<path fill="#FF8D7A" d="M816.253,362.442c0,0.229-0.041,0.428-0.124,0.597c-0.082,0.168-0.191,0.31-0.327,0.424
		s-0.288,0.2-0.456,0.258c-0.169,0.059-0.343,0.086-0.521,0.086c-0.179,0-0.354-0.027-0.521-0.086
		c-0.168-0.058-0.317-0.142-0.45-0.252s-0.237-0.253-0.316-0.425s-0.118-0.372-0.118-0.602v-12.72c0-0.229,0.041-0.43,0.124-0.602
		c0.082-0.172,0.189-0.313,0.322-0.425c0.132-0.11,0.281-0.194,0.451-0.252c0.168-0.059,0.342-0.086,0.521-0.086
		s0.354,0.027,0.521,0.086c0.169,0.058,0.318,0.142,0.45,0.252c0.134,0.11,0.24,0.253,0.322,0.425
		c0.083,0.172,0.124,0.372,0.124,0.602v5.437l5.597-6.177c0.145-0.216,0.311-0.369,0.5-0.463c0.189-0.093,0.386-0.14,0.586-0.14
		c0.172,0,0.339,0.03,0.498,0.092c0.162,0.062,0.306,0.146,0.431,0.252c0.126,0.107,0.228,0.234,0.307,0.382
		c0.079,0.146,0.118,0.307,0.118,0.479c0,0.236-0.086,0.477-0.258,0.72l-4.963,5.124l5.521,6.264c0.102,0.136,0.17,0.271,0.21,0.402
		c0.039,0.132,0.06,0.26,0.06,0.381c0,0.188-0.041,0.359-0.123,0.521c-0.083,0.16-0.192,0.301-0.328,0.418
		c-0.136,0.119-0.292,0.212-0.467,0.279c-0.177,0.067-0.354,0.103-0.532,0.103c-0.208,0-0.41-0.048-0.605-0.146
		c-0.197-0.097-0.367-0.26-0.512-0.488l-6.037-7.09v6.37H816.253z"/>
</g>
<g opacity="0.9">
	<path fill="#FF8D7A" d="M361.304,444.141c-0.165,0.243-0.349,0.419-0.554,0.526c-0.203,0.107-0.409,0.157-0.617,0.15
		c-0.165,0-0.324-0.03-0.479-0.092c-0.153-0.062-0.289-0.146-0.408-0.253c-0.117-0.106-0.211-0.23-0.279-0.37
		c-0.067-0.141-0.102-0.288-0.102-0.445c0-0.229,0.082-0.458,0.247-0.688l4.458-6.102l-4.157-5.641
		c-0.15-0.199-0.226-0.411-0.226-0.634c0-0.165,0.039-0.321,0.118-0.473c0.079-0.151,0.187-0.281,0.322-0.393
		c0.136-0.11,0.29-0.2,0.462-0.27c0.172-0.067,0.351-0.102,0.537-0.102c0.229,0,0.451,0.056,0.666,0.166s0.404,0.292,0.569,0.543
		l3.566,5.188l3.663-5.188c0.165-0.251,0.351-0.431,0.559-0.537c0.208-0.107,0.415-0.161,0.623-0.161
		c0.165,0,0.322,0.03,0.473,0.091c0.15,0.062,0.285,0.144,0.402,0.248c0.119,0.104,0.212,0.224,0.279,0.359
		c0.068,0.136,0.103,0.282,0.103,0.439c0,0.107-0.02,0.219-0.06,0.333c-0.039,0.114-0.102,0.229-0.188,0.344l-4.243,5.684
		l4.383,6.037c0.15,0.215,0.226,0.43,0.226,0.645c0,0.172-0.041,0.333-0.123,0.483c-0.083,0.149-0.192,0.282-0.328,0.396
		c-0.136,0.114-0.292,0.206-0.467,0.274c-0.176,0.066-0.354,0.102-0.532,0.102c-0.215,0-0.425-0.052-0.628-0.156
		c-0.205-0.104-0.386-0.276-0.543-0.521l-3.835-5.564L361.304,444.141z"/>
</g>
<g opacity="0.9">
	<path fill="#FF8D7A" d="M439.561,437.158c0-1.253,0.182-2.383,0.543-3.39s0.864-1.861,1.51-2.567
		c0.645-0.705,1.411-1.246,2.299-1.621c0.888-0.377,1.854-0.564,2.9-0.564c0.65,0,1.324,0.077,2.02,0.23
		c0.694,0.154,1.411,0.393,2.148,0.715c0.235,0.102,0.407,0.243,0.516,0.43c0.107,0.188,0.161,0.376,0.161,0.569
		c0,0.136-0.023,0.269-0.069,0.397c-0.047,0.129-0.115,0.244-0.205,0.35c-0.089,0.104-0.195,0.186-0.322,0.246
		c-0.125,0.062-0.267,0.092-0.424,0.092c-0.129,0-0.271-0.028-0.43-0.086c-1.153-0.408-2.177-0.612-3.072-0.612
		c-0.745,0-1.402,0.129-1.977,0.388c-0.574,0.258-1.053,0.632-1.439,1.122s-0.681,1.093-0.881,1.805
		c-0.2,0.713-0.301,1.527-0.301,2.444c0,0.838,0.088,1.604,0.264,2.299c0.176,0.693,0.443,1.291,0.806,1.788
		c0.361,0.498,0.812,0.887,1.354,1.166c0.541,0.278,1.177,0.419,1.907,0.419c0.509,0,1.057-0.069,1.644-0.21
		c0.587-0.14,1.226-0.363,1.912-0.671c0.093-0.043,0.186-0.073,0.273-0.092c0.09-0.019,0.174-0.026,0.253-0.026
		c0.15,0,0.284,0.027,0.402,0.086c0.117,0.058,0.221,0.136,0.307,0.235c0.086,0.101,0.152,0.216,0.198,0.345
		c0.047,0.129,0.069,0.262,0.069,0.396c0,0.222-0.063,0.442-0.192,0.661c-0.129,0.218-0.345,0.398-0.646,0.542
		c-1.59,0.745-3.064,1.117-4.426,1.117c-1.053,0-2.016-0.193-2.89-0.58s-1.622-0.933-2.245-1.638c-0.623-0.706-1.106-1.55-1.45-2.53
		C439.733,439.432,439.561,438.347,439.561,437.158z"/>
</g>
<g opacity="0.9">
	<path fill="#FF8D7A" d="M527.744,442.572h0.043l4.05-12.226c0.093-0.308,0.26-0.548,0.499-0.72c0.24-0.172,0.504-0.258,0.79-0.258
		c0.179,0,0.349,0.032,0.505,0.097c0.157,0.065,0.297,0.15,0.419,0.258c0.122,0.108,0.22,0.236,0.29,0.388
		c0.071,0.15,0.107,0.312,0.107,0.482c-0.008,0.064-0.016,0.129-0.021,0.193c-0.006,0.063-0.021,0.133-0.043,0.204l-4.231,11.956
		c-0.107,0.344-0.238,0.636-0.394,0.876c-0.152,0.238-0.332,0.431-0.537,0.573c-0.203,0.145-0.431,0.247-0.682,0.312
		s-0.526,0.097-0.827,0.097c-0.294,0-0.562-0.027-0.806-0.086c-0.244-0.058-0.467-0.157-0.666-0.301
		c-0.2-0.144-0.378-0.335-0.531-0.574c-0.154-0.239-0.289-0.539-0.403-0.896l-4.274-11.902c-0.043-0.129-0.064-0.262-0.064-0.396
		c0-0.18,0.038-0.349,0.112-0.506c0.075-0.156,0.178-0.294,0.307-0.407c0.129-0.114,0.277-0.206,0.445-0.274
		c0.169-0.067,0.346-0.102,0.532-0.102c0.285,0,0.546,0.084,0.777,0.252c0.233,0.169,0.396,0.402,0.489,0.704L527.744,442.572z"/>
</g>
<g opacity="0.9">
	<path fill="#FF8D7A" d="M601.95,430.734c0-0.193,0.036-0.372,0.106-0.537c0.071-0.165,0.17-0.311,0.297-0.437
		c0.125-0.125,0.271-0.224,0.438-0.295c0.169-0.071,0.351-0.106,0.543-0.106l5.425,0.011c0.674,0,1.294,0.097,1.864,0.29
		c0.568,0.192,1.06,0.46,1.471,0.801c0.412,0.34,0.732,0.746,0.962,1.219c0.23,0.474,0.345,0.992,0.345,1.559
		c0,0.423-0.073,0.825-0.22,1.208c-0.147,0.384-0.354,0.729-0.618,1.037c-0.265,0.308-0.578,0.57-0.94,0.789
		c-0.361,0.219-0.761,0.37-1.197,0.456v0.044c0.537,0.078,1.024,0.226,1.461,0.439c0.438,0.214,0.811,0.487,1.117,0.816
		s0.546,0.709,0.715,1.139c0.168,0.43,0.252,0.902,0.252,1.418s-0.093,1.026-0.278,1.53c-0.188,0.506-0.485,0.957-0.896,1.354
		c-0.412,0.398-0.941,0.722-1.59,0.967c-0.647,0.248-1.435,0.371-2.358,0.371h-5.511c-0.192,0-0.374-0.035-0.543-0.106
		c-0.168-0.071-0.313-0.168-0.438-0.29c-0.126-0.122-0.226-0.268-0.297-0.436c-0.07-0.169-0.106-0.346-0.106-0.531v-12.709H601.95z
		 M604.722,431.271v4.779h2.664c0.431,0,0.838-0.045,1.226-0.134c0.387-0.09,0.724-0.233,1.01-0.43
		c0.286-0.197,0.514-0.45,0.683-0.759c0.168-0.308,0.252-0.681,0.252-1.116c0-0.474-0.09-0.859-0.269-1.16s-0.417-0.539-0.714-0.715
		c-0.298-0.175-0.641-0.297-1.026-0.365c-0.387-0.067-0.791-0.103-1.214-0.103h-2.611V431.271z M604.722,442.905h2.707
		c0.595,0,1.119-0.041,1.573-0.124c0.455-0.082,0.838-0.225,1.15-0.424c0.311-0.2,0.546-0.472,0.703-0.812
		c0.156-0.341,0.235-0.765,0.235-1.272c0-0.537-0.104-0.974-0.312-1.306c-0.208-0.334-0.499-0.593-0.876-0.778
		c-0.375-0.188-0.826-0.313-1.354-0.382c-0.525-0.067-1.104-0.103-1.734-0.103h-2.095v5.2H604.722z"/>
</g>
<g opacity="0.9">
	<path fill="#FF8D7A" d="M681.043,431.078c0-0.272,0.041-0.514,0.124-0.726c0.082-0.212,0.194-0.391,0.338-0.536
		c0.145-0.147,0.308-0.259,0.488-0.334c0.184-0.074,0.378-0.112,0.586-0.112c0.272,0,0.543,0.067,0.811,0.204
		c0.271,0.136,0.516,0.344,0.736,0.623l7.509,10.816v-10.431c0-0.2,0.036-0.378,0.107-0.531c0.07-0.153,0.167-0.281,0.284-0.382
		c0.118-0.101,0.255-0.177,0.407-0.23c0.154-0.054,0.312-0.08,0.469-0.08c0.156,0,0.312,0.024,0.462,0.074
		c0.149,0.051,0.284,0.127,0.401,0.231c0.119,0.104,0.215,0.232,0.285,0.387c0.071,0.153,0.107,0.331,0.107,0.531v12.515
		c0,0.272-0.043,0.515-0.129,0.727c-0.086,0.211-0.2,0.388-0.345,0.531c-0.144,0.143-0.31,0.254-0.5,0.333
		c-0.188,0.078-0.388,0.117-0.596,0.117c-0.265,0-0.531-0.065-0.801-0.198c-0.269-0.133-0.518-0.343-0.746-0.628l-7.466-10.765
		v10.377c0,0.2-0.038,0.376-0.112,0.526c-0.076,0.149-0.172,0.277-0.291,0.381c-0.117,0.104-0.254,0.182-0.408,0.231
		c-0.153,0.05-0.31,0.074-0.467,0.074s-0.312-0.024-0.462-0.074c-0.15-0.051-0.284-0.125-0.403-0.227
		c-0.116-0.101-0.213-0.226-0.284-0.376c-0.07-0.149-0.106-0.329-0.106-0.537L681.043,431.078L681.043,431.078z"/>
</g>
<g opacity="0.9">
	<path fill="#FF8D7A" d="M763.688,441.305l4.352-9.851c0.165-0.408,0.329-0.747,0.494-1.015c0.165-0.271,0.34-0.484,0.525-0.646
		c0.188-0.162,0.39-0.274,0.607-0.339s0.467-0.097,0.746-0.097c0.271,0,0.531,0.043,0.779,0.129
		c0.246,0.086,0.465,0.222,0.653,0.407c0.19,0.188,0.341,0.427,0.451,0.721c0.111,0.294,0.167,0.647,0.167,1.062v11.881
		c0,0.208-0.034,0.39-0.104,0.543c-0.066,0.153-0.158,0.282-0.272,0.388c-0.114,0.104-0.245,0.182-0.394,0.235
		c-0.146,0.054-0.295,0.08-0.444,0.08c-0.15,0-0.295-0.026-0.437-0.08c-0.139-0.055-0.267-0.133-0.381-0.235
		c-0.113-0.104-0.206-0.233-0.272-0.388c-0.068-0.153-0.104-0.335-0.104-0.543v-11.43l-4.759,10.925
		c-0.071,0.2-0.166,0.376-0.285,0.526c-0.117,0.15-0.252,0.277-0.401,0.381c-0.15,0.104-0.311,0.184-0.479,0.236
		c-0.168,0.055-0.338,0.081-0.51,0.081c-0.329,0-0.643-0.1-0.939-0.296c-0.298-0.196-0.521-0.507-0.672-0.93l-4.748-10.859v11.364
		c0,0.208-0.033,0.39-0.102,0.543s-0.16,0.282-0.274,0.388c-0.114,0.104-0.243,0.182-0.387,0.235s-0.29,0.08-0.44,0.08
		c-0.149,0-0.297-0.026-0.439-0.08c-0.145-0.055-0.271-0.133-0.382-0.235c-0.11-0.104-0.2-0.233-0.269-0.388
		c-0.068-0.153-0.103-0.335-0.103-0.543V431.68c0-0.415,0.056-0.77,0.167-1.062c0.109-0.294,0.263-0.533,0.456-0.72
		c0.192-0.188,0.415-0.322,0.666-0.408s0.516-0.129,0.795-0.129c0.278,0,0.53,0.033,0.752,0.102s0.428,0.185,0.618,0.344
		c0.188,0.162,0.365,0.378,0.53,0.65c0.165,0.271,0.329,0.612,0.494,1.021l4.275,9.829L763.688,441.305L763.688,441.305z"/>
</g>
<g opacity="0.9">
	<path fill="#FF8D7A" d="M290.097,274.013l-3.309,11.183c-0.058,0.258-0.157,0.485-0.301,0.682
		c-0.144,0.197-0.315,0.365-0.516,0.506c-0.2,0.139-0.417,0.245-0.649,0.316c-0.233,0.071-0.472,0.107-0.715,0.107
		c-0.222,0-0.438-0.032-0.65-0.097c-0.211-0.064-0.406-0.161-0.585-0.29c-0.179-0.129-0.337-0.295-0.473-0.5
		c-0.136-0.203-0.236-0.445-0.301-0.725l-3.169-12.214c-0.028-0.107-0.043-0.222-0.043-0.344c0-0.193,0.043-0.367,0.129-0.521
		c0.086-0.154,0.195-0.285,0.328-0.393c0.132-0.107,0.284-0.191,0.456-0.252c0.172-0.062,0.344-0.092,0.516-0.092
		c0.265,0,0.507,0.073,0.726,0.221c0.218,0.146,0.359,0.385,0.424,0.714l2.857,11.967l3.405-11.387
		c0.058-0.258,0.148-0.483,0.274-0.677c0.125-0.193,0.271-0.354,0.439-0.483c0.169-0.129,0.354-0.226,0.554-0.29
		c0.2-0.064,0.404-0.097,0.612-0.097s0.412,0.032,0.612,0.097c0.2,0.065,0.387,0.161,0.559,0.29c0.172,0.129,0.322,0.29,0.451,0.483
		c0.129,0.193,0.222,0.419,0.279,0.677l3.534,11.365l2.825-11.924c0.064-0.344,0.21-0.593,0.435-0.747
		c0.227-0.153,0.472-0.23,0.736-0.23c0.165,0,0.328,0.028,0.488,0.086c0.162,0.058,0.307,0.138,0.436,0.242s0.232,0.229,0.312,0.375
		c0.079,0.147,0.118,0.313,0.118,0.5c0,0.114-0.015,0.226-0.043,0.333l-3.212,12.3c-0.063,0.272-0.168,0.51-0.312,0.715
		c-0.144,0.203-0.31,0.375-0.5,0.516c-0.189,0.139-0.396,0.245-0.623,0.316c-0.225,0.071-0.452,0.107-0.682,0.107
		s-0.453-0.034-0.672-0.102c-0.218-0.068-0.42-0.172-0.606-0.312c-0.187-0.139-0.348-0.311-0.483-0.516
		c-0.136-0.203-0.236-0.445-0.301-0.725L290.097,274.013z"/>
</g>
<g opacity="0.9">
	<path fill="#FF8D7A" d="M534.607,273.529c-0.187,0-0.349-0.03-0.488-0.092c-0.139-0.061-0.254-0.141-0.344-0.241
		c-0.09-0.101-0.157-0.215-0.203-0.344c-0.047-0.129-0.07-0.262-0.07-0.397c0-0.135,0.023-0.271,0.07-0.402
		c0.046-0.133,0.115-0.249,0.209-0.35c0.093-0.101,0.208-0.183,0.344-0.247s0.297-0.097,0.482-0.097h10.151
		c0.179,0,0.337,0.032,0.474,0.097c0.136,0.065,0.25,0.146,0.344,0.247c0.093,0.101,0.163,0.215,0.209,0.344
		c0.047,0.129,0.07,0.262,0.07,0.397c0,0.135-0.023,0.269-0.07,0.397c-0.046,0.129-0.114,0.245-0.203,0.35
		c-0.09,0.104-0.205,0.186-0.344,0.246c-0.142,0.062-0.301,0.092-0.479,0.092h-3.608v11.892c0,0.229-0.041,0.432-0.123,0.606
		c-0.084,0.176-0.192,0.322-0.328,0.441c-0.137,0.117-0.29,0.205-0.462,0.263c-0.173,0.058-0.349,0.086-0.526,0.086
		s-0.354-0.028-0.526-0.086c-0.172-0.058-0.325-0.146-0.462-0.263c-0.136-0.119-0.244-0.266-0.328-0.441
		c-0.082-0.175-0.123-0.377-0.123-0.606v-11.892H534.607L534.607,273.529z"/>
</g>
<g opacity="0.9">
	<path fill="#FF8D7A" d="M618.759,280.512v4.909c0,0.229-0.041,0.432-0.124,0.606c-0.082,0.176-0.19,0.322-0.327,0.441
		c-0.136,0.117-0.292,0.205-0.468,0.263c-0.175,0.058-0.354,0.086-0.531,0.086s-0.354-0.028-0.525-0.086s-0.326-0.146-0.462-0.263
		c-0.137-0.119-0.245-0.266-0.328-0.441c-0.082-0.175-0.123-0.377-0.123-0.606v-4.855l-4.662-7.412
		c-0.058-0.101-0.097-0.197-0.118-0.29c-0.021-0.093-0.036-0.183-0.043-0.269c0-0.172,0.043-0.333,0.129-0.483
		c0.086-0.15,0.2-0.279,0.344-0.387c0.145-0.108,0.306-0.191,0.483-0.252c0.179-0.062,0.361-0.092,0.548-0.092
		c0.243,0,0.473,0.059,0.688,0.178c0.215,0.117,0.383,0.31,0.505,0.574l3.706,6.392h0.043l3.737-6.445
		c0.114-0.251,0.272-0.43,0.474-0.537s0.415-0.161,0.645-0.161c0.165,0,0.326,0.025,0.483,0.075s0.297,0.122,0.419,0.215
		c0.122,0.093,0.22,0.204,0.296,0.333c0.074,0.129,0.112,0.272,0.112,0.43c0,0.079-0.011,0.165-0.032,0.258
		c-0.021,0.093-0.061,0.187-0.118,0.279L618.759,280.512z"/>
</g>
<g opacity="0.9">
	<path fill="#FF8D7A" d="M780.099,272.724c0-0.229,0.041-0.432,0.124-0.606c0.082-0.176,0.191-0.321,0.327-0.436
		c0.136-0.115,0.29-0.2,0.462-0.258c0.172-0.058,0.349-0.086,0.526-0.086s0.354,0.028,0.526,0.086
		c0.172,0.058,0.325,0.144,0.462,0.258c0.136,0.114,0.245,0.26,0.327,0.436c0.082,0.175,0.123,0.377,0.123,0.606v12.687
		c0,0.229-0.041,0.43-0.123,0.602c-0.082,0.172-0.191,0.315-0.327,0.43c-0.137,0.115-0.292,0.2-0.469,0.258
		c-0.175,0.058-0.353,0.086-0.53,0.086c-0.179,0-0.354-0.028-0.526-0.086c-0.172-0.058-0.324-0.144-0.456-0.258
		c-0.133-0.114-0.24-0.258-0.322-0.43c-0.083-0.172-0.124-0.372-0.124-0.602V272.724L780.099,272.724z"/>
</g>
<g opacity="0.9">
	<path fill="#FF8D7A" d="M851.755,279.094c0-1.203,0.161-2.301,0.483-3.293c0.322-0.991,0.797-1.842,1.424-2.551
		c0.626-0.709,1.4-1.259,2.325-1.648c0.924-0.391,1.986-0.586,3.189-0.586c1.21,0,2.277,0.195,3.201,0.586
		c0.924,0.39,1.699,0.939,2.326,1.648c0.626,0.709,1.099,1.56,1.418,2.551c0.317,0.992,0.478,2.09,0.478,3.293
		c0,1.203-0.158,2.299-0.478,3.287c-0.319,0.988-0.792,1.837-1.418,2.546c-0.627,0.709-1.402,1.259-2.326,1.649
		c-0.924,0.39-1.991,0.585-3.201,0.585c-1.203,0-2.267-0.195-3.189-0.585c-0.925-0.391-1.699-0.94-2.325-1.649
		c-0.627-0.709-1.102-1.558-1.424-2.546C851.916,281.393,851.755,280.297,851.755,279.094z M854.795,279.094
		c0,0.859,0.084,1.652,0.252,2.379c0.169,0.728,0.432,1.354,0.79,1.881c0.358,0.525,0.812,0.938,1.364,1.234
		c0.552,0.298,1.21,0.446,1.977,0.446c0.768,0,1.426-0.148,1.978-0.446c0.552-0.297,1.006-0.709,1.364-1.234
		c0.357-0.527,0.622-1.153,0.795-1.881c0.172-0.727,0.258-1.52,0.258-2.379c0-0.853-0.084-1.642-0.253-2.369
		s-0.432-1.354-0.789-1.885c-0.358-0.531-0.814-0.945-1.369-1.246c-0.556-0.301-1.216-0.451-1.982-0.451
		c-0.766,0-1.427,0.15-1.981,0.451c-0.556,0.301-1.01,0.716-1.363,1.246c-0.355,0.53-0.616,1.158-0.785,1.885
		C854.879,277.452,854.795,278.241,854.795,279.094z"/>
</g>
<g opacity="0.9">
	<path fill="#FF8D7A" d="M940.467,280.565v4.866c0,0.229-0.041,0.432-0.123,0.607c-0.083,0.175-0.191,0.32-0.328,0.435
		c-0.136,0.115-0.292,0.2-0.467,0.258c-0.176,0.058-0.354,0.086-0.531,0.086c-0.179,0-0.354-0.028-0.526-0.086
		s-0.326-0.144-0.462-0.258c-0.137-0.114-0.245-0.26-0.327-0.435c-0.083-0.176-0.124-0.378-0.124-0.607v-12.644
		c0-0.193,0.038-0.378,0.111-0.554c0.076-0.175,0.181-0.327,0.312-0.456c0.132-0.129,0.286-0.231,0.461-0.306
		c0.176-0.076,0.364-0.113,0.564-0.113h4.351c0.802,0,1.566,0.082,2.294,0.247s1.363,0.43,1.912,0.795
		c0.547,0.365,0.982,0.838,1.305,1.418c0.323,0.58,0.483,1.289,0.483,2.127c0,0.853-0.167,1.572-0.499,2.159
		c-0.334,0.587-0.785,1.063-1.354,1.429c-0.57,0.365-1.234,0.628-1.993,0.79c-0.759,0.16-1.562,0.241-2.406,0.241L940.467,280.565
		L940.467,280.565z M942.991,278.589c0.494,0,0.954-0.043,1.38-0.129c0.427-0.086,0.795-0.231,1.107-0.435
		c0.311-0.205,0.557-0.477,0.734-0.816c0.18-0.341,0.27-0.762,0.27-1.263s-0.088-0.919-0.265-1.251
		c-0.175-0.334-0.415-0.601-0.719-0.801c-0.305-0.2-0.663-0.344-1.074-0.43c-0.412-0.086-0.854-0.129-1.327-0.129h-2.632v5.253
		L942.991,278.589L942.991,278.589z"/>
</g>
<g opacity="0.9">
	<path fill="#FF8D7A" d="M281.595,444.807c-0.236,0-0.439-0.031-0.612-0.097c-0.172-0.064-0.315-0.15-0.43-0.258
		c-0.115-0.108-0.198-0.232-0.253-0.376c-0.053-0.145-0.08-0.29-0.08-0.44c0-0.294,0.093-0.572,0.279-0.838l7.906-11.312h-6.982
		c-0.179,0-0.335-0.03-0.467-0.093c-0.133-0.061-0.244-0.141-0.334-0.24c-0.089-0.102-0.155-0.216-0.198-0.345
		s-0.064-0.258-0.064-0.387c0-0.136,0.021-0.267,0.064-0.392c0.043-0.126,0.109-0.238,0.198-0.339
		c0.09-0.102,0.201-0.182,0.334-0.241c0.132-0.062,0.288-0.092,0.467-0.092h9.249c0.38,0,0.681,0.11,0.902,0.333
		c0.221,0.222,0.333,0.489,0.333,0.806c0,0.144-0.023,0.286-0.07,0.43c-0.046,0.145-0.119,0.286-0.22,0.431l-7.949,11.321h7.111
		c0.179,0,0.335,0.03,0.468,0.093c0.132,0.061,0.243,0.141,0.332,0.24c0.09,0.102,0.156,0.213,0.199,0.339
		c0.043,0.125,0.064,0.257,0.064,0.393c0,0.129-0.021,0.258-0.064,0.387c-0.043,0.129-0.109,0.243-0.199,0.344
		c-0.089,0.102-0.2,0.182-0.332,0.241c-0.133,0.062-0.289,0.092-0.468,0.092H281.595L281.595,444.807z"/>
</g>
<linearGradient id="SVGID_9_" gradientUnits="userSpaceOnUse" x1="-0.3721" y1="245.1611" x2="104.9208" y2="159.8604" gradientTransform="matrix(1 0 0 -1 679 506.1152)">
	<stop  offset="0.2622" style="stop-color:#000000"/>
	<stop  offset="1" style="stop-color:#000000;stop-opacity:0"/>
</linearGradient>
<polygon opacity="0.1" fill="url(#SVGID_9_)" enable-background="new    " points="721.089,233.472 653.439,296.69 878.205,480.394 
	878.205,482.944 1023.205,601.984 1023.205,480.394 "/>
<g>
	<g opacity="0.8">
		<path fill="#A6212D" d="M659.007,232h55.007c3.862,0,6.986,3.129,6.986,7.017v53.968c0,3.883-3.124,7.016-6.986,7.016h-55.007
			c-3.856,0-7.007-3.133-7.007-7.016v-53.968C652,235.129,655.148,232,659.007,232z"/>
	</g>
	<g>
		<path fill="#FFFFFF" d="M659.007,230h55.007c3.862,0,6.986,3.129,6.986,7.017v53.968c0,3.883-3.124,7.016-6.986,7.016h-55.007
			c-3.856,0-7.007-3.133-7.007-7.016v-53.968C652,233.129,655.148,230,659.007,230z"/>
	</g>
</g>
<g>
	<path fill="#B33B39" d="M693.182,272.756c0-0.229,0.041-0.432,0.123-0.607c0.083-0.175,0.19-0.32,0.322-0.435
		c0.133-0.114,0.285-0.2,0.457-0.258s0.352-0.086,0.537-0.086c0.179,0,0.354,0.028,0.525,0.086c0.173,0.058,0.326,0.144,0.463,0.258
		c0.136,0.114,0.244,0.26,0.328,0.435c0.081,0.176,0.122,0.378,0.122,0.607v8.69c0,0.608,0.1,1.134,0.296,1.573
		c0.196,0.441,0.456,0.807,0.778,1.096c0.322,0.291,0.689,0.506,1.103,0.645c0.41,0.141,0.832,0.21,1.262,0.21
		c0.437,0,0.861-0.069,1.273-0.21c0.41-0.139,0.777-0.354,1.101-0.645c0.322-0.289,0.582-0.654,0.778-1.096
		c0.196-0.439,0.296-0.965,0.296-1.573v-8.69c0-0.229,0.041-0.432,0.124-0.607c0.082-0.175,0.19-0.32,0.326-0.435
		c0.137-0.115,0.291-0.2,0.463-0.258s0.351-0.086,0.537-0.086c0.179,0,0.354,0.028,0.525,0.086s0.326,0.144,0.462,0.258
		c0.136,0.114,0.245,0.26,0.328,0.435c0.082,0.176,0.123,0.378,0.123,0.607v8.776c0,0.945-0.168,1.769-0.505,2.471
		s-0.791,1.285-1.364,1.751c-0.573,0.466-1.244,0.812-2.014,1.042c-0.771,0.229-1.589,0.344-2.455,0.344s-1.683-0.114-2.449-0.344
		c-0.766-0.23-1.436-0.576-2.009-1.042c-0.573-0.466-1.026-1.049-1.358-1.751c-0.334-0.702-0.5-1.525-0.5-2.471L693.182,272.756
		L693.182,272.756z"/>
</g>
<g>
	<g opacity="0.8">
		<path fill="#A6212D" d="M338.008,232h55.005c3.862,0,6.987,3.129,6.987,7.017v53.968c0,3.883-3.125,7.016-6.987,7.016h-55.005
			c-3.858,0-7.008-3.133-7.008-7.016v-53.968C331,235.129,334.149,232,338.008,232z"/>
	</g>
	<g>
		<path fill="#FFFFFF" d="M338.008,230h55.005c3.862,0,6.987,3.129,6.987,7.017v53.968c0,3.883-3.125,7.016-6.987,7.016h-55.005
			c-3.858,0-7.008-3.133-7.008-7.016v-53.968C331,233.129,334.149,230,338.008,230z"/>
	</g>
</g>
<g>
	<g opacity="0.8">
		<path fill="#A6212D" d="M176.986,232h55.006c3.883,0,7.008,3.129,7.008,7.017v53.968c0,3.883-3.125,7.016-7.008,7.016h-55.006
			c-3.858,0-6.986-3.133-6.986-7.016v-53.968C170,235.129,173.128,232,176.986,232z"/>
	</g>
	<g>
		<path fill="#FFFFFF" d="M176.986,230h55.006c3.883,0,7.008,3.129,7.008,7.017v53.968c0,3.883-3.125,7.016-7.008,7.016h-55.006
			c-3.858,0-6.986-3.133-6.986-7.016v-53.968C170,233.129,173.128,230,176.986,230z"/>
	</g>
</g>
<g>
	<g opacity="0.8">
		<path opacity="0.8" fill="#A6212D" d="M417.006,232h54.988c3.859,0,7.006,3.129,7.006,7.017v53.968
			c0,3.883-3.146,7.016-7.006,7.016h-54.988c-3.854,0-7.006-3.133-7.006-7.016v-53.968C410,235.129,413.15,232,417.006,232z"/>
	</g>
	<g>
		<path fill="#FFFFFF" d="M417.006,230h54.988c3.859,0,7.006,3.129,7.006,7.017v53.968c0,3.883-3.146,7.016-7.006,7.016h-54.988
			c-3.854,0-7.006-3.133-7.006-7.016v-53.968C410,233.129,413.15,230,417.006,230z"/>
	</g>
</g>
<g>
	<path fill="#B33B39" d="M205.259,279.094c0-1.203,0.161-2.301,0.483-3.293c0.322-0.991,0.797-1.842,1.424-2.551
		c0.626-0.709,1.401-1.259,2.325-1.648c0.924-0.391,1.987-0.586,3.19-0.586c1.21,0,2.275,0.191,3.195,0.574
		c0.921,0.384,1.69,0.926,2.311,1.628c0.619,0.702,1.086,1.545,1.401,2.53c0.315,0.984,0.473,2.078,0.473,3.281
		c0,0.602-0.058,1.175-0.172,1.719c-0.114,0.544-0.277,1.057-0.489,1.536c-0.211,0.479-0.463,0.928-0.757,1.343
		s-0.619,0.791-0.978,1.128h1.955c0.172,0,0.322,0.028,0.451,0.086c0.129,0.058,0.236,0.134,0.322,0.231
		c0.086,0.096,0.15,0.203,0.193,0.322c0.043,0.117,0.064,0.241,0.064,0.37c0,0.129-0.021,0.254-0.064,0.376s-0.107,0.23-0.193,0.328
		c-0.086,0.096-0.193,0.175-0.322,0.236c-0.129,0.061-0.279,0.095-0.451,0.102c-0.172,0.007-0.415,0.016-0.73,0.027
		c-0.315,0.01-0.66,0.02-1.037,0.026c-0.375,0.007-0.761,0.015-1.154,0.021c-0.393,0.006-0.758,0.013-1.09,0.017
		c-0.334,0.003-0.613,0.007-0.838,0.01c-0.227,0.004-0.36,0.006-0.403,0.006c-0.344,0.079-0.646,0.14-0.907,0.183
		c-0.262,0.043-0.521,0.064-0.779,0.064c-1.203,0-2.267-0.195-3.19-0.585c-0.924-0.391-1.699-0.94-2.325-1.649
		c-0.627-0.709-1.102-1.558-1.424-2.546C205.421,281.392,205.259,280.297,205.259,279.094z M208.299,279.094
		c0,0.859,0.084,1.652,0.252,2.379c0.169,0.728,0.432,1.354,0.79,1.881c0.358,0.525,0.812,0.938,1.364,1.234
		c0.552,0.298,1.21,0.446,1.977,0.446s1.425-0.148,1.977-0.446c0.552-0.297,1.006-0.709,1.364-1.234
		c0.358-0.527,0.623-1.153,0.795-1.881c0.172-0.727,0.258-1.52,0.258-2.379c0-0.853-0.084-1.642-0.253-2.369
		c-0.168-0.727-0.431-1.354-0.789-1.885c-0.358-0.531-0.814-0.945-1.369-1.246c-0.556-0.301-1.216-0.451-1.982-0.451
		s-1.427,0.15-1.982,0.451c-0.555,0.301-1.01,0.716-1.363,1.246c-0.355,0.53-0.616,1.158-0.785,1.885
		C208.383,277.452,208.299,278.241,208.299,279.094z"/>
</g>
<g>
	<path fill="#B33B39" d="M451.794,272.767c0-0.193,0.038-0.376,0.112-0.548c0.076-0.172,0.178-0.32,0.307-0.445
		c0.129-0.126,0.281-0.227,0.457-0.301c0.175-0.076,0.359-0.113,0.553-0.113h4.834c0.725,0,1.42,0.058,2.09,0.172
		c0.67,0.114,1.263,0.32,1.777,0.617c0.517,0.298,0.93,0.7,1.24,1.209c0.312,0.509,0.468,1.156,0.468,1.944
		c0,0.43-0.065,0.834-0.198,1.214c-0.133,0.38-0.334,0.72-0.602,1.021c-0.27,0.301-0.609,0.559-1.021,0.773
		c-0.41,0.215-0.899,0.376-1.466,0.483v0.043c0.537,0.079,0.981,0.204,1.332,0.376c0.352,0.172,0.636,0.396,0.854,0.671
		c0.218,0.276,0.381,0.604,0.488,0.983c0.106,0.379,0.188,0.81,0.246,1.289c0.051,0.43,0.094,0.836,0.129,1.22
		c0.036,0.383,0.068,0.721,0.098,1.015c0.027,0.344,0.054,0.659,0.075,0.945v0.129c0,0.215-0.041,0.404-0.124,0.569
		c-0.082,0.165-0.189,0.303-0.322,0.414c-0.132,0.11-0.282,0.194-0.451,0.252c-0.168,0.058-0.342,0.086-0.521,0.086
		c-0.165,0-0.327-0.025-0.489-0.075c-0.16-0.05-0.309-0.125-0.439-0.226c-0.133-0.101-0.244-0.229-0.334-0.387
		c-0.089-0.157-0.147-0.34-0.177-0.548c-0.079-0.767-0.144-1.436-0.192-2.009c-0.05-0.573-0.109-1.065-0.178-1.477
		c-0.067-0.412-0.16-0.751-0.273-1.016c-0.114-0.265-0.274-0.473-0.479-0.623c-0.205-0.15-0.466-0.256-0.785-0.316
		c-0.317-0.062-0.714-0.092-1.187-0.092h-2.977v5.403c0,0.229-0.04,0.43-0.122,0.602c-0.084,0.172-0.192,0.313-0.328,0.425
		c-0.137,0.11-0.288,0.194-0.457,0.252c-0.168,0.058-0.343,0.086-0.521,0.086s-0.353-0.028-0.521-0.086
		c-0.169-0.058-0.319-0.142-0.451-0.252c-0.133-0.111-0.24-0.253-0.322-0.425c-0.083-0.172-0.124-0.372-0.124-0.602L451.794,272.767
		L451.794,272.767z M456.939,278.062c0.443,0,0.892-0.023,1.343-0.07c0.45-0.046,0.858-0.151,1.225-0.316s0.662-0.404,0.892-0.72
		c0.23-0.316,0.345-0.745,0.345-1.289c0-0.537-0.102-0.96-0.301-1.268c-0.2-0.308-0.458-0.541-0.773-0.698
		c-0.315-0.157-0.666-0.258-1.053-0.301c-0.388-0.043-0.763-0.064-1.128-0.064h-2.848v4.727L456.939,278.062L456.939,278.062z"/>
</g>
<g>
	<path fill="#B33B39" d="M377.064,286.807c-0.187,0-0.363-0.037-0.532-0.113c-0.168-0.074-0.316-0.175-0.445-0.301
		c-0.129-0.125-0.232-0.271-0.312-0.439c-0.079-0.169-0.118-0.346-0.118-0.532v-12.676c0-0.179,0.034-0.353,0.102-0.521
		c0.068-0.169,0.165-0.317,0.291-0.446c0.125-0.129,0.27-0.231,0.435-0.306c0.165-0.076,0.344-0.113,0.537-0.113h7.82
		c0.179,0,0.335,0.03,0.468,0.092c0.132,0.061,0.243,0.141,0.332,0.241c0.09,0.101,0.156,0.213,0.199,0.339
		c0.043,0.125,0.064,0.256,0.064,0.392c0,0.129-0.021,0.258-0.064,0.387s-0.109,0.243-0.199,0.344
		c-0.089,0.101-0.2,0.181-0.332,0.241c-0.133,0.062-0.289,0.092-0.468,0.092h-6.381v4.351h5.973c0.179,0,0.337,0.03,0.473,0.091
		c0.136,0.062,0.249,0.142,0.339,0.242c0.089,0.101,0.155,0.213,0.198,0.338c0.043,0.126,0.064,0.257,0.064,0.393
		c0,0.129-0.023,0.258-0.069,0.387c-0.047,0.129-0.115,0.243-0.205,0.344c-0.089,0.101-0.2,0.181-0.332,0.242
		c-0.133,0.061-0.289,0.091-0.468,0.091h-5.973v4.716h6.617c0.179,0,0.335,0.03,0.468,0.092c0.132,0.061,0.243,0.141,0.332,0.241
		c0.09,0.101,0.156,0.213,0.199,0.339c0.043,0.125,0.063,0.256,0.063,0.392c0,0.129-0.021,0.258-0.063,0.387
		c-0.043,0.129-0.109,0.243-0.199,0.344c-0.089,0.101-0.2,0.181-0.332,0.241c-0.133,0.062-0.289,0.092-0.468,0.092h-8.014V286.807z"
		/>
</g>
<g>
	<g opacity="0.8">
		<path fill="#A6212D" d="M295.008,311h55.006c3.86,0,6.986,3.149,6.986,7.016v53.989c0,3.862-3.126,6.995-6.986,6.995h-55.006
			c-3.88,0-7.008-3.133-7.008-6.995v-53.989C288,314.149,291.128,311,295.008,311z"/>
	</g>
	<g>
		<path fill="#FFFFFF" d="M295.008,309h55.006c3.86,0,6.986,3.149,6.986,7.016v53.989c0,3.862-3.126,6.995-6.986,6.995h-55.006
			c-3.88,0-7.008-3.133-7.008-6.995v-53.989C288,312.149,291.128,309,295.008,309z"/>
	</g>
</g>
<g>
	<path fill="#B33B39" d="M334.168,352.237c0,0.43,0.116,0.788,0.35,1.073c0.232,0.286,0.542,0.532,0.929,0.735
		c0.387,0.205,0.831,0.384,1.332,0.537c0.501,0.154,1.017,0.311,1.547,0.468c0.681,0.208,1.314,0.435,1.901,0.677
		c0.587,0.243,1.096,0.539,1.525,0.888c0.43,0.347,0.768,0.761,1.016,1.239c0.246,0.479,0.37,1.058,0.37,1.729
		c0,0.716-0.146,1.358-0.439,1.929c-0.294,0.568-0.705,1.054-1.235,1.449c-0.53,0.398-1.167,0.702-1.912,0.914
		c-0.745,0.211-1.572,0.316-2.48,0.316c-0.681,0-1.326-0.059-1.939-0.173c-0.611-0.113-1.17-0.272-1.676-0.479
		c-0.504-0.203-0.946-0.443-1.326-0.719c-0.38-0.276-0.677-0.579-0.892-0.908c-0.058-0.107-0.086-0.229-0.086-0.365
		c0-0.129,0.028-0.262,0.086-0.396c0.058-0.136,0.131-0.261,0.22-0.37c0.09-0.111,0.19-0.203,0.301-0.274
		c0.111-0.071,0.221-0.106,0.328-0.106c0.122,0,0.245,0.039,0.371,0.117c0.125,0.079,0.248,0.157,0.37,0.236
		c0.229,0.15,0.492,0.299,0.79,0.445c0.297,0.146,0.623,0.278,0.977,0.393c0.355,0.114,0.738,0.208,1.15,0.279
		c0.411,0.071,0.847,0.106,1.305,0.106s0.885-0.043,1.278-0.129c0.393-0.086,0.735-0.217,1.026-0.393
		c0.289-0.175,0.517-0.396,0.682-0.66s0.247-0.58,0.247-0.945c0-0.473-0.118-0.858-0.354-1.159
		c-0.236-0.302-0.548-0.558-0.935-0.769c-0.387-0.212-0.827-0.391-1.321-0.537s-0.999-0.303-1.515-0.468
		c-0.193-0.063-0.423-0.144-0.688-0.236c-0.265-0.092-0.532-0.194-0.8-0.306c-0.27-0.111-0.523-0.227-0.764-0.344
		c-0.239-0.119-0.436-0.231-0.585-0.339c-1.312-0.651-1.966-1.755-1.966-3.31c0-0.688,0.148-1.302,0.445-1.843
		c0.298-0.54,0.708-0.998,1.23-1.375c0.521-0.375,1.139-0.662,1.848-0.859c0.709-0.195,1.479-0.295,2.31-0.295
		c1.103,0,2.088,0.159,2.954,0.479c0.866,0.317,1.615,0.796,2.245,1.434c0.093,0.102,0.157,0.206,0.193,0.316
		c0.036,0.111,0.054,0.23,0.054,0.359c0,0.122-0.018,0.247-0.054,0.377c-0.036,0.129-0.093,0.246-0.172,0.354
		s-0.181,0.195-0.306,0.263c-0.126,0.068-0.278,0.104-0.457,0.104c-0.2,0-0.426-0.107-0.677-0.322
		c-0.193-0.136-0.419-0.274-0.677-0.413c-0.258-0.141-0.541-0.264-0.849-0.371c-0.308-0.106-0.638-0.194-0.988-0.264
		c-0.351-0.067-0.72-0.103-1.106-0.103c-0.38,0-0.758,0.037-1.133,0.113c-0.377,0.074-0.717,0.193-1.021,0.354
		c-0.304,0.162-0.551,0.369-0.74,0.623C334.263,351.573,334.168,351.879,334.168,352.237z"/>
</g>
<path fill="#B33B39" d="M913,310h-53.428c-4.112,0-7.572,3.896-7.572,8v71h-40.709l0,0c-4.113,0-7.291,3.876-7.291,8v51
	c0,4.125,2.886,8,7,8h102c4.112,0,8-3.875,8-8V318C921,313.896,917.113,310,913,310z M915,452H809v-58h48.118v-79H915V452z"/>
<linearGradient id="SVGID_10_" gradientUnits="userSpaceOnUse" x1="895.7998" y1="417.248" x2="943.4668" y2="466.915">
	<stop  offset="0" style="stop-color:#000000"/>
	<stop  offset="1" style="stop-color:#000000;stop-opacity:0"/>
</linearGradient>
<path opacity="0.07" fill="url(#SVGID_10_)" enable-background="new    " d="M921.039,315.822v2.216v11.76v118.345
	c0,0.55-0.065,1.086-0.181,1.605v1.309c0,4.125-3.746,6.943-7.858,6.943H811c-1.209,0-2.319-0.249-3.292-0.697l82.692,82.673
	l2.365-0.709l125.871-125.87L921.039,315.822z"/>
<g opacity="0.85">
	<rect x="888" y="432.999" fill="#FFFFFF" width="2" height="1.091"/>
	<rect x="885" y="432.999" fill="#FFFFFF" width="2" height="1.091"/>
	<rect x="885" y="443.908" fill="#FFFFFF" width="2" height="1.091"/>
	<rect x="888" y="443.908" fill="#FFFFFF" width="2" height="1.091"/>
	<rect x="887" y="434.09" fill="#FFFFFF" width="1" height="9.818"/>
</g>
<g opacity="0.85">
	<path fill="#FFFFFF" d="M817.752,435.702c0,0.312,0.085,0.573,0.254,0.781s0.396,0.387,0.676,0.534
		c0.281,0.148,0.604,0.278,0.97,0.392c0.364,0.112,0.739,0.226,1.125,0.34c0.495,0.151,0.956,0.315,1.383,0.492
		s0.797,0.392,1.108,0.645c0.312,0.253,0.56,0.555,0.738,0.902c0.18,0.348,0.271,0.769,0.271,1.258c0,0.521-0.106,0.988-0.32,1.402
		s-0.513,0.766-0.897,1.055c-0.386,0.289-0.85,0.511-1.392,0.664s-1.144,0.23-1.805,0.23c-0.495,0-0.966-0.042-1.41-0.125
		c-0.445-0.083-0.853-0.199-1.219-0.349c-0.367-0.148-0.688-0.323-0.966-0.522c-0.276-0.2-0.491-0.421-0.647-0.66
		c-0.042-0.078-0.062-0.167-0.062-0.267c0-0.094,0.021-0.189,0.062-0.289c0.041-0.099,0.095-0.188,0.16-0.27
		c0.064-0.082,0.138-0.147,0.219-0.199s0.16-0.078,0.238-0.078c0.089,0,0.179,0.028,0.27,0.086c0.091,0.059,0.181,0.114,0.271,0.173
		c0.167,0.108,0.357,0.218,0.574,0.323c0.216,0.106,0.452,0.202,0.711,0.285c0.258,0.083,0.535,0.151,0.836,0.203
		c0.3,0.052,0.615,0.078,0.948,0.078s0.645-0.031,0.931-0.094c0.285-0.063,0.535-0.157,0.746-0.285s0.375-0.288,0.495-0.48
		c0.12-0.191,0.181-0.422,0.181-0.688c0-0.344-0.086-0.625-0.258-0.844c-0.173-0.22-0.398-0.405-0.681-0.56
		s-0.602-0.284-0.961-0.391c-0.358-0.107-0.727-0.221-1.102-0.34c-0.142-0.048-0.309-0.104-0.5-0.173
		c-0.192-0.067-0.388-0.142-0.582-0.223c-0.195-0.081-0.38-0.164-0.556-0.25c-0.175-0.086-0.315-0.168-0.426-0.246
		c-0.953-0.474-1.43-1.275-1.43-2.406c0-0.5,0.107-0.945,0.324-1.34c0.216-0.394,0.515-0.727,0.895-1
		c0.38-0.272,0.828-0.48,1.344-0.625c0.517-0.144,1.075-0.215,1.681-0.215c0.802,0,1.519,0.116,2.147,0.348
		c0.629,0.232,1.176,0.579,1.633,1.044c0.067,0.072,0.114,0.148,0.142,0.229c0.026,0.081,0.039,0.168,0.039,0.262
		c0,0.089-0.013,0.181-0.039,0.273s-0.067,0.18-0.125,0.258s-0.132,0.143-0.224,0.191c-0.091,0.049-0.201,0.073-0.332,0.073
		c-0.146,0-0.31-0.077-0.491-0.233c-0.142-0.1-0.306-0.199-0.492-0.301c-0.188-0.103-0.394-0.191-0.617-0.271
		c-0.223-0.079-0.464-0.142-0.719-0.19c-0.255-0.05-0.523-0.074-0.806-0.074c-0.275,0-0.551,0.026-0.823,0.082
		c-0.273,0.055-0.521,0.141-0.742,0.258s-0.401,0.269-0.539,0.453C817.822,435.215,817.752,435.441,817.752,435.702z"/>
	<path fill="#FFFFFF" d="M825.877,438.507c0-0.875,0.117-1.673,0.352-2.395c0.235-0.723,0.579-1.34,1.035-1.855
		c0.456-0.515,1.021-0.915,1.691-1.199c0.671-0.283,1.445-0.426,2.32-0.426c0.88,0,1.654,0.141,2.323,0.418
		c0.669,0.278,1.229,0.673,1.681,1.185c0.451,0.511,0.789,1.124,1.02,1.84s0.344,1.512,0.344,2.387c0,0.438-0.042,0.854-0.125,1.25
		c-0.083,0.396-0.201,0.77-0.354,1.117s-0.337,0.675-0.551,0.977c-0.214,0.303-0.45,0.575-0.712,0.82h1.423
		c0.125,0,0.233,0.021,0.327,0.062c0.095,0.041,0.173,0.099,0.234,0.169c0.062,0.069,0.109,0.147,0.141,0.233
		c0.032,0.086,0.048,0.176,0.048,0.271c0,0.094-0.017,0.185-0.048,0.272c-0.03,0.088-0.077,0.168-0.141,0.238
		c-0.062,0.07-0.141,0.128-0.234,0.172c-0.093,0.044-0.202,0.069-0.327,0.074s-0.302,0.012-0.531,0.02s-0.479,0.016-0.754,0.021
		s-0.554,0.011-0.84,0.016s-0.552,0.009-0.794,0.012c-0.241,0.003-0.444,0.006-0.608,0.009s-0.262,0.004-0.293,0.004
		c-0.25,0.058-0.47,0.102-0.66,0.133s-0.379,0.047-0.565,0.047c-0.875,0-1.648-0.142-2.32-0.426s-1.235-0.685-1.691-1.199
		s-0.801-1.133-1.035-1.852C825.997,440.18,825.877,439.382,825.877,438.507z M828.088,438.507c0,0.625,0.062,1.202,0.184,1.73
		c0.123,0.527,0.313,0.983,0.574,1.366c0.262,0.384,0.592,0.684,0.992,0.898c0.401,0.215,0.88,0.324,1.438,0.324
		c0.558,0,1.036-0.108,1.438-0.324c0.402-0.216,0.731-0.516,0.992-0.898c0.261-0.382,0.453-0.839,0.578-1.366
		c0.125-0.528,0.188-1.105,0.188-1.73c0-0.62-0.062-1.194-0.184-1.723c-0.122-0.529-0.313-0.985-0.574-1.371
		s-0.593-0.688-0.996-0.906c-0.402-0.218-0.884-0.328-1.44-0.328c-0.558,0-1.038,0.109-1.441,0.328
		c-0.402,0.219-0.734,0.521-0.992,0.906s-0.447,0.843-0.569,1.371S828.088,437.887,828.088,438.507z"/>
	<path fill="#FFFFFF" d="M838.854,433.897c0-0.167,0.03-0.313,0.091-0.441c0.06-0.128,0.138-0.233,0.233-0.316
		c0.097-0.083,0.207-0.146,0.332-0.188s0.255-0.062,0.392-0.062c0.13,0,0.258,0.021,0.383,0.062s0.237,0.104,0.336,0.188
		s0.179,0.188,0.237,0.316c0.06,0.128,0.091,0.274,0.091,0.441v6.319c0,0.442,0.071,0.824,0.215,1.146
		c0.144,0.32,0.332,0.586,0.565,0.797c0.234,0.211,0.502,0.367,0.802,0.469c0.3,0.103,0.604,0.152,0.918,0.152
		c0.317,0,0.626-0.052,0.926-0.152s0.566-0.258,0.801-0.469c0.235-0.211,0.423-0.478,0.566-0.797
		c0.143-0.32,0.215-0.702,0.215-1.146v-6.319c0-0.167,0.03-0.313,0.09-0.441c0.061-0.128,0.141-0.233,0.238-0.316
		s0.211-0.146,0.336-0.188s0.255-0.062,0.391-0.062c0.13,0,0.259,0.021,0.384,0.062s0.236,0.104,0.336,0.188
		c0.099,0.084,0.179,0.188,0.237,0.316c0.06,0.128,0.091,0.274,0.091,0.441v6.383c0,0.688-0.123,1.286-0.367,1.797
		c-0.245,0.511-0.575,0.935-0.992,1.272c-0.417,0.339-0.905,0.592-1.465,0.759c-0.561,0.167-1.155,0.25-1.785,0.25
		s-1.225-0.083-1.781-0.25s-1.044-0.419-1.461-0.759c-0.417-0.339-0.746-0.763-0.988-1.272s-0.362-1.109-0.362-1.797v-6.383H838.854
		z"/>
	<path fill="#FFFFFF" d="M859.775,442.89c0.035,0.104,0.055,0.208,0.055,0.312c0,0.141-0.03,0.267-0.09,0.379
		c-0.061,0.112-0.141,0.207-0.238,0.285s-0.211,0.138-0.336,0.18s-0.253,0.062-0.383,0.062c-0.192,0-0.374-0.055-0.543-0.16
		c-0.169-0.106-0.282-0.274-0.34-0.504l-0.812-2.086h-5.008l-0.805,2.086c-0.062,0.233-0.177,0.402-0.341,0.508
		c-0.163,0.104-0.34,0.156-0.526,0.156c-0.125,0-0.25-0.021-0.375-0.062s-0.235-0.102-0.332-0.18
		c-0.098-0.078-0.175-0.172-0.234-0.281c-0.059-0.109-0.09-0.23-0.09-0.367c0-0.052,0.004-0.104,0.012-0.16
		c0.008-0.055,0.024-0.109,0.051-0.168l3.281-8.202c0.131-0.364,0.262-0.663,0.392-0.896s0.27-0.414,0.418-0.547
		c0.147-0.133,0.31-0.227,0.483-0.277s0.368-0.078,0.582-0.078c0.219,0,0.417,0.027,0.594,0.082
		c0.178,0.056,0.341,0.149,0.488,0.285c0.148,0.136,0.288,0.319,0.418,0.551c0.131,0.232,0.258,0.524,0.383,0.88L859.775,442.89z
		 M854.572,434.491l-2.062,5.555h4.148l-2.055-5.555H854.572z"/>
	<path fill="#FFFFFF" d="M861.682,433.905c0-0.142,0.027-0.273,0.082-0.398c0.056-0.125,0.129-0.232,0.224-0.324
		c0.094-0.091,0.204-0.164,0.332-0.219s0.262-0.082,0.401-0.082h3.517c0.525,0,1.031,0.042,1.52,0.125s0.918,0.233,1.293,0.449
		s0.677,0.509,0.902,0.879s0.34,0.841,0.34,1.414c0,0.312-0.048,0.606-0.146,0.883c-0.097,0.277-0.241,0.523-0.438,0.742
		s-0.442,0.406-0.742,0.562c-0.3,0.156-0.654,0.273-1.065,0.353v0.031c0.391,0.058,0.714,0.147,0.969,0.272s0.462,0.288,0.621,0.488
		s0.276,0.438,0.354,0.715s0.139,0.589,0.18,0.938c0.037,0.312,0.067,0.607,0.095,0.887c0.026,0.279,0.05,0.523,0.069,0.738
		c0.021,0.25,0.039,0.479,0.056,0.688v0.094c0,0.156-0.03,0.294-0.09,0.414c-0.061,0.12-0.139,0.221-0.234,0.302
		c-0.096,0.08-0.206,0.142-0.328,0.184s-0.249,0.062-0.379,0.062c-0.12,0-0.238-0.019-0.354-0.055
		c-0.117-0.036-0.225-0.091-0.32-0.164s-0.178-0.167-0.242-0.281c-0.064-0.113-0.107-0.247-0.129-0.397
		c-0.059-0.559-0.104-1.044-0.141-1.461c-0.037-0.417-0.079-0.774-0.13-1.074c-0.05-0.3-0.116-0.546-0.198-0.738
		c-0.083-0.191-0.199-0.344-0.349-0.453c-0.148-0.108-0.339-0.187-0.569-0.229c-0.231-0.043-0.521-0.066-0.863-0.066h-2.164v3.931
		c0,0.167-0.03,0.312-0.09,0.438c-0.061,0.126-0.141,0.229-0.238,0.309c-0.098,0.081-0.21,0.143-0.332,0.185
		s-0.249,0.062-0.379,0.062s-0.257-0.021-0.379-0.062s-0.231-0.104-0.328-0.185c-0.097-0.08-0.175-0.184-0.234-0.309
		c-0.059-0.125-0.09-0.271-0.09-0.438v-9.206H861.682z M865.424,437.757c0.323,0,0.648-0.017,0.978-0.051s0.625-0.11,0.891-0.23
		s0.481-0.294,0.647-0.522c0.168-0.229,0.25-0.542,0.25-0.938c0-0.391-0.072-0.697-0.219-0.922
		c-0.146-0.224-0.333-0.394-0.562-0.508c-0.229-0.114-0.484-0.188-0.767-0.219c-0.281-0.031-0.555-0.047-0.819-0.047h-2.07v3.438
		H865.424z"/>
	<path fill="#FFFFFF" d="M873.807,444.116c-0.136,0-0.265-0.027-0.387-0.082c-0.122-0.056-0.23-0.128-0.324-0.219
		c-0.094-0.092-0.169-0.198-0.227-0.32c-0.059-0.122-0.086-0.251-0.086-0.387v-9.22c0-0.13,0.023-0.257,0.074-0.379
		c0.05-0.122,0.119-0.229,0.211-0.324c0.091-0.094,0.195-0.168,0.315-0.223s0.25-0.082,0.392-0.082h5.688
		c0.13,0,0.243,0.022,0.34,0.066c0.098,0.044,0.178,0.103,0.242,0.176c0.065,0.073,0.113,0.155,0.145,0.246
		c0.032,0.091,0.048,0.187,0.048,0.285c0,0.094-0.017,0.188-0.048,0.28c-0.03,0.094-0.078,0.178-0.145,0.25
		c-0.066,0.073-0.146,0.133-0.242,0.177s-0.21,0.065-0.34,0.065h-4.641v3.164h4.344c0.13,0,0.245,0.022,0.344,0.066
		c0.1,0.044,0.182,0.103,0.246,0.176s0.113,0.155,0.145,0.246c0.032,0.091,0.048,0.187,0.048,0.285c0,0.094-0.018,0.188-0.052,0.281
		c-0.033,0.093-0.082,0.177-0.147,0.25c-0.065,0.072-0.146,0.132-0.242,0.176s-0.21,0.065-0.34,0.065h-4.344v3.431h4.812
		c0.13,0,0.243,0.021,0.34,0.065c0.098,0.044,0.178,0.104,0.242,0.176c0.065,0.073,0.113,0.155,0.146,0.246
		c0.032,0.092,0.047,0.188,0.047,0.285c0,0.094-0.017,0.188-0.047,0.281c-0.031,0.093-0.079,0.177-0.146,0.25
		s-0.146,0.132-0.242,0.176c-0.096,0.044-0.21,0.066-0.34,0.066h-5.828V444.116z"/>
</g>
<g>
	<g opacity="0.8">
		<path fill="#A6212D" d="M214.986,311h55.006c3.884,0,7.008,3.149,7.008,7.016v53.989c0,3.862-3.124,6.995-7.008,6.995h-55.006
			c-3.859,0-6.986-3.133-6.986-6.995v-53.989C208,314.149,211.127,311,214.986,311z"/>
	</g>
	<g>
		<path fill="#FFFFFF" d="M214.986,309h55.006c3.884,0,7.008,3.149,7.008,7.016v53.989c0,3.862-3.124,6.995-7.008,6.995h-55.006
			c-3.859,0-6.986-3.133-6.986-6.995v-53.989C208,312.149,211.127,309,214.986,309z"/>
	</g>
</g>
<g>
	<path fill="#B33B39" d="M263.356,362.12c0.05,0.144,0.075,0.286,0.075,0.43c0,0.193-0.041,0.367-0.124,0.521
		c-0.082,0.153-0.191,0.285-0.327,0.393c-0.136,0.108-0.29,0.189-0.462,0.247s-0.348,0.086-0.526,0.086
		c-0.265,0-0.514-0.073-0.747-0.22c-0.232-0.147-0.388-0.378-0.467-0.693l-1.117-2.868h-6.886l-1.106,2.868
		c-0.086,0.322-0.242,0.556-0.467,0.698c-0.227,0.144-0.468,0.215-0.726,0.215c-0.172,0-0.344-0.028-0.516-0.086
		s-0.324-0.14-0.456-0.247c-0.133-0.106-0.24-0.236-0.322-0.387c-0.083-0.15-0.124-0.318-0.124-0.505
		c0-0.071,0.005-0.146,0.017-0.221c0.01-0.075,0.033-0.151,0.069-0.23l4.512-11.279c0.179-0.501,0.358-0.911,0.537-1.229
		c0.179-0.319,0.37-0.57,0.575-0.752c0.203-0.185,0.426-0.312,0.666-0.383c0.239-0.07,0.506-0.106,0.8-0.106
		c0.301,0,0.573,0.038,0.816,0.112c0.243,0.075,0.468,0.206,0.671,0.393c0.205,0.188,0.396,0.438,0.575,0.758
		c0.179,0.318,0.354,0.722,0.526,1.208L263.356,362.12z M256.202,350.572l-2.836,7.638h5.704l-2.825-7.638H256.202z"/>
</g>
</svg>
