<?xml version="1.0" encoding="utf-8"?>
<!-- Generator: Adobe Illustrator 16.0.4, SVG Export Plug-In . SVG Version: 6.00 Build 0)  -->
<!DOCTYPE svg PUBLIC "-//W3C//DTD SVG 1.1//EN" "http://www.w3.org/Graphics/SVG/1.1/DTD/svg11.dtd">
<svg version="1.1" id="Ebene_1" xmlns="http://www.w3.org/2000/svg" xmlns:xlink="http://www.w3.org/1999/xlink" x="0px" y="0px"
	 width="1130px" height="690px" viewBox="0 0 1130 690" enable-background="new 0 0 1130 690" xml:space="preserve">
<linearGradient id="SVGID_4_" gradientUnits="userSpaceOnUse" x1="686.9678" y1="301.6479" x2="806.1154" y2="567.9786">
	<stop  offset="0.0046" style="stop-color:#1D1D1B"/>
	<stop  offset="1" style="stop-color:#1D1D1B;stop-opacity:0"/>
</linearGradient>
<path opacity="0.1" fill="url(#SVGID_4_)" enable-background="new    " d="M740.362,58.733L382.052,71.125v435.283h4.447v27.247
	l748.536,632.436V399.564L740.362,58.733z M556.321,71h14.359c1.604,0,4.32,1.356,4.32,3.011c0,1.633-2.719,2.989-4.32,2.989
	h-14.359c-1.599,0-4.321-1.356-4.321-2.989C552,72.357,554.72,71,556.321,71z M566.476,533c-4.682,0-8.476-3.811-8.476-8.498
	c0-4.689,3.794-8.502,8.476-8.502c4.687,0,8.479,3.812,8.479,8.502C574.954,529.189,571.162,533,566.476,533z M714,503H418V92h296
	V503z"/>
<polygon display="none" fill="#89D0E6" points="698.471,374.74 589.52,302.98 679.439,397.62 "/>
<rect x="367.37" fill="none" width="761.63" height="858.538"/>
<path fill="#FFFFFF" d="M729,52l-326.018-0.118c-11.553,0-20.931,9.375-20.931,20.946l0.002,449.542
	c0,11.57,9.396,20.63,20.947,20.63h326c11.555,0,21-9.43,21-21V73C749.998,61.429,740.553,52,729,52z M556.32,71h14.357
	c1.604,0,4.32,1.356,4.32,3.011c0,1.633-2.719,2.989-4.32,2.989H556.32c-1.601,0-4.32-1.356-4.32-2.989
	C552,72.356,554.72,71,556.32,71z M566.476,533c-4.682,0-8.476-3.811-8.476-8.498c0-4.689,3.794-8.502,8.476-8.502
	c4.687,0,8.479,3.812,8.479,8.502C574.954,529.189,571.162,533,566.476,533z M714,503H418V92h296V503z"/>
<defs>
	<filter id="Adobe_OpacityMaskFilter" filterUnits="userSpaceOnUse" x="779.954" y="421.396" width="53.944" height="53.943">
		<feColorMatrix  type="matrix" values="1 0 0 0 0  0 1 0 0 0  0 0 1 0 0  0 0 0 1 0"/>
	</filter>
</defs>
<mask maskUnits="userSpaceOnUse" x="779.954" y="421.396" width="53.944" height="53.943" id="SVGID_1_">
	<g filter="url(#Adobe_OpacityMaskFilter)">
		<rect x="418.291" y="92.034" fill="#FFFFFF" width="295.642" height="411.146"/>
	</g>
</mask>
<g mask="url(#SVGID_1_)">
	
		<polygon fill="none" stroke="#FFFFFF" stroke-width="5.0003" stroke-linecap="round" stroke-linejoin="round" stroke-miterlimit="10" points="
		782.454,423.896 831.398,423.896 782.454,472.84 	"/>
</g>
<g opacity="0.5">
	<defs>
		<rect id="SVGID_5_" x="749.904" y="102.5" opacity="0.5" width="380.096" height="411.5"/>
	</defs>
	<clipPath id="SVGID_6_">
		<use xlink:href="#SVGID_5_"  overflow="visible"/>
	</clipPath>
	<g clip-path="url(#SVGID_6_)">
		<g>
			<g>
				<path fill="#FF8D7A" d="M830.972,126v297l-52,53h-194V126H830.972 M831.246,121H584.972c-2.762,0-5,1.555-5,4.316v350.459
					c0,2.762,2.792,5.225,5.554,5.225h194.075c1.358,0,2.658-0.778,3.602-1.755l51.646-53.606c0.897-0.933,1.124-2.176,1.124-3.47
					V125.317C835.971,122.555,834.008,121,831.246,121L831.246,121z"/>
			</g>
		</g>
		<g>
			<path fill="#FF8D7A" d="M1116,126v297l-52,53H870V126H1116 M1116.274,121H870c-2.762,0-5,1.555-5,4.316v350.459
				c0,2.762,2.792,5.225,5.554,5.225h194.075c1.358,0,2.658-0.778,3.602-1.755l51.646-53.606c0.897-0.933,1.124-2.176,1.124-3.47
				V125.317C1120.999,122.555,1119.036,121,1116.274,121L1116.274,121z"/>
		</g>
		<path fill="#FF8D7A" d="M1120.625,421.625c-0.774-1.869-2.548-2.625-4.569-2.625h-52.003c-2.762,0-5,2.238-5,5v52
			c0,2.022,1.218,3.846,3.086,4.62c0.136,0.056,0.276,0.082,0.414,0.125l3.197-0.37c0.75-0.237,1.26-0.26,1.84-0.839l51.951-52.462
			C1120.971,425.644,1121.399,423.493,1120.625,421.625z M1064,476v-52h52L1064,476z"/>
		<path fill="#FF8D7A" d="M835.597,421.625c-0.774-1.869-2.548-2.625-4.569-2.625h-52.003c-2.762,0-5,2.238-5,5v52
			c0,2.022,1.218,3.846,3.086,4.62c0.136,0.056,0.276,0.082,0.414,0.125l3.197-0.37c0.75-0.237,1.26-0.26,1.84-0.839l51.951-52.462
			C835.942,425.644,836.371,423.493,835.597,421.625z M778.972,476v-52h52L778.972,476z"/>
	</g>
</g>
<g opacity="0.5">
	<defs>
		<rect id="SVGID_7_" x="5.5" y="40.5" opacity="0.5" width="376" height="551"/>
	</defs>
	<clipPath id="SVGID_8_">
		<use xlink:href="#SVGID_7_"  overflow="visible"/>
	</clipPath>
	<g clip-path="url(#SVGID_8_)">
		<g>
			<g>
				<path fill="#FF8D7A" d="M547,125v299l-52,52H301V125H547 M547,120H301c-2.762,0-5,2.239-5,5v351c0,2.762,2.239,5,5,5h194
					c1.326,0,2.598-0.526,3.536-1.464l52-52c0.938-0.938,1.464-2.21,1.464-3.536V125C552,122.238,549.762,120,547,120L547,120z"/>
			</g>
			<g>
				<path fill="#FF8D7A" d="M546.523,423.896L497,473v-49L546.523,423.896 M546.523,418.896c-0.004,0-0.008,0-0.012,0L496.989,419
					c-2.757,0.006-4.989,2.242-4.989,5v49c0,2.019,1.213,3.839,3.077,4.615c0.622,0.26,1.274,0.385,1.922,0.385
					c1.294,0,2.565-0.502,3.521-1.449l49.523-49.104c1.439-1.429,1.875-3.585,1.102-5.459
					C550.373,420.116,548.547,418.896,546.523,418.896L546.523,418.896z"/>
			</g>
		</g>
		<g>
			<path fill="#FF8D7A" d="M261.932,126v297l-51.997,53H15.944V126H261.932 M262.206,121H15.944c-2.762,0-5,1.555-5,4.316v350.459
				c0,2.762,2.792,5.225,5.553,5.225h194.066c1.358,0,2.658-0.778,3.601-1.755l51.643-53.606c0.897-0.933,1.124-2.176,1.124-3.47
				V125.317C266.931,122.555,264.968,121,262.206,121L262.206,121z"/>
		</g>
		<path fill="#FF8D7A" d="M266.557,421.625c-0.774-1.869-2.548-2.625-4.569-2.625h-52c-2.762,0-5,2.238-5,5v52
			c0,2.022,1.218,3.846,3.086,4.62c0.136,0.056,0.276,0.082,0.414,0.125l3.197-0.37c0.75-0.237,1.26-0.26,1.84-0.839l51.949-52.462
			C266.902,425.644,267.331,423.493,266.557,421.625z M209.935,476v-52h51.997L209.935,476z"/>
	</g>
</g>
<defs>
	<filter id="Adobe_OpacityMaskFilter_1_" filterUnits="userSpaceOnUse" x="296" y="120" width="256.001" height="361">
		<feColorMatrix  type="matrix" values="1 0 0 0 0  0 1 0 0 0  0 0 1 0 0  0 0 0 1 0"/>
	</filter>
</defs>
<mask maskUnits="userSpaceOnUse" x="296" y="120" width="256.001" height="361" id="SVGID_2_">
	<g filter="url(#Adobe_OpacityMaskFilter_1_)">
		<rect x="418.291" y="92.034" fill="#FFFFFF" width="295.642" height="411.146"/>
		<rect x="345.334" y="490.075" fill="#FFFFFF" width="43.667" height="104.333"/>
		<rect x="314.667" y="483.408" fill="#FFFFFF" width="78.334" height="88"/>
	</g>
</mask>
<g mask="url(#SVGID_2_)">
	<g>
		<path fill="#FFFFFF" d="M547,125v299l-52,52H301V125H547 M547,120H301c-2.762,0-5,2.239-5,5v351c0,2.762,2.239,5,5,5h194
			c1.326,0,2.598-0.526,3.536-1.464l52-52c0.938-0.938,1.464-2.21,1.464-3.536V125C552,122.238,549.762,120,547,120L547,120z"/>
	</g>
	<g>
		<path fill="#FFFFFF" d="M547,424l-52,52v-52H547 M547,419h-52c-2.762,0-5,2.238-5,5v52c0,2.022,1.218,3.846,3.086,4.62
			c0.619,0.256,1.27,0.38,1.913,0.38c1.301,0,2.58-0.508,3.537-1.464l52-52c1.43-1.431,1.858-3.581,1.084-5.449
			C550.846,420.218,549.021,419,547,419L547,419z"/>
	</g>
</g>
<defs>
	<filter id="Adobe_OpacityMaskFilter_2_" filterUnits="userSpaceOnUse" x="580" y="120" width="256" height="361">
		<feColorMatrix  type="matrix" values="1 0 0 0 0  0 1 0 0 0  0 0 1 0 0  0 0 0 1 0"/>
	</filter>
</defs>
<mask maskUnits="userSpaceOnUse" x="580" y="120" width="256" height="361" id="SVGID_3_">
	<g filter="url(#Adobe_OpacityMaskFilter_2_)">
		<rect x="418.291" y="92.034" fill="#FFFFFF" width="295.642" height="411.146"/>
	</g>
</mask>
<g mask="url(#SVGID_3_)">
	<g>
		<path fill="#FFFFFF" d="M831,125v297l-51,54H585V125H831 M831,120H585c-2.762,0-5,2.239-5,5v351c0,2.762,2.238,5,5,5h195
			c1.376,0,2.689-0.566,3.635-1.566l51-54c0.877-0.929,1.365-2.156,1.365-3.434V125C836,122.238,833.762,120,831,120L831,120z"/>
	</g>
	
		<polygon fill="none" stroke="#FFFFFF" stroke-width="5.0003" stroke-linecap="round" stroke-linejoin="round" stroke-miterlimit="10" points="
		782.454,423.896 831.398,423.896 782.454,472.84 	"/>
</g>
</svg>
