<?xml version="1.0" encoding="utf-8"?>
<!-- Generator: Adobe Illustrator 16.0.4, SVG Export Plug-In . SVG Version: 6.00 Build 0)  -->
<!DOCTYPE svg PUBLIC "-//W3C//DTD SVG 1.1//EN" "http://www.w3.org/Graphics/SVG/1.1/DTD/svg11.dtd">
<svg version="1.1" id="Ebene_1" xmlns="http://www.w3.org/2000/svg" xmlns:xlink="http://www.w3.org/1999/xlink" x="0px" y="0px"
	 width="352px" height="410px" viewBox="0 0 352 410" enable-background="new 0 0 352 410" xml:space="preserve">
<rect x="0" y="67" fill="#B23C39" width="221.863" height="343"/>
<g>
	<path fill="#FFFFFF" d="M188.205,233.956l-15.901,15.899c-0.587,0.562-1.393,0.905-2.222,0.905c-0.831,0-1.614-0.343-2.196-0.905
		l-1.834-1.829c-0.586-0.586-0.929-1.395-0.929-2.226c0-0.827,0.343-1.635,0.929-2.22l7.158-7.159h-17.193
		c-1.761,0-2.859-1.465-2.859-3.127v-3.124c0-1.66,1.099-3.126,2.859-3.126h17.193l-7.158-7.179
		c-0.586-0.562-0.929-1.369-0.929-2.198c0-0.83,0.343-1.636,0.929-2.198l1.834-1.83c0.584-0.586,1.367-0.93,2.196-0.93
		s1.635,0.344,2.222,0.93l15.901,15.899c0.584,0.561,0.903,1.367,0.903,2.197C189.109,232.565,188.789,233.369,188.205,233.956z"/>
</g>
<path fill="#FFFFFF" d="M317.202,3.473h-5.966V1.484c0-0.737-0.258-0.995-0.993-0.995h-36.787c-0.736,0-1.988,0.258-1.988,0.995
	v1.988H140.231c-18.951,0-34.818,14.853-34.818,33.804v12.924h-0.993c-0.717,0-1.419,1.063-1.419,1.799v19
	c0,0.713,0.702,1.074,1.419,1.074h0.993v11.931c-0.716,0-2.412,0.26-2.412,0.996v15c0,0.735,1.696,0.906,2.412,0.906v25.85
	c-0.716,0-2.412,0.508-2.412,1.244v15c0,0.732,1.696,0.657,2.412,0.657V410H121V67h215v343h16V37.276
	C352,18.326,336.153,3.473,317.202,3.473z M227.999,20c2.802,0,5.001,2.199,5.001,5c0,2.779-2.199,5-5.001,5
	C225.2,30,223,27.779,223,25C223,22.199,225.199,20,227.999,20z M247,50h-37.999c-2.8,0-5.001-2.2-5.001-5c0-2.801,2.199-5,5.001-5
	H247c2.801,0,5,2.199,5,5C252,47.8,249.801,50,247,50z"/>
<g>
	<path fill="#FFFFFF" d="M133.766,229.156c1.392,0,2.485,1.111,2.485,2.484c0,1.369-1.094,2.486-2.485,2.486
		c-1.373,0-2.485-1.117-2.485-2.486C131.281,230.268,132.393,229.156,133.766,229.156z"/>
	<circle fill="#FFFFFF" cx="113.881" cy="231.642" r="2.485"/>
	<circle fill="#FFFFFF" cx="89.026" cy="231.642" r="2.485"/>
	<circle fill="#FFFFFF" cx="69.141" cy="231.642" r="2.485"/>
	<circle fill="#FFFFFF" cx="49.256" cy="231.642" r="2.485"/>
</g>
</svg>
