<?xml version="1.0" encoding="utf-8"?>
<!-- Generator: Adobe Illustrator 16.0.4, SVG Export Plug-In . SVG Version: 6.00 Build 0)  -->
<!DOCTYPE svg PUBLIC "-//W3C//DTD SVG 1.1//EN" "http://www.w3.org/Graphics/SVG/1.1/DTD/svg11.dtd">
<svg version="1.1" id="Ebene_1" xmlns="http://www.w3.org/2000/svg" xmlns:xlink="http://www.w3.org/1999/xlink" x="0px" y="0px"
	 width="1130px" height="690px" viewBox="0 0 1130 690" enable-background="new 0 0 1130 690" xml:space="preserve">
<defs>
	<filter id="Adobe_OpacityMaskFilter" filterUnits="userSpaceOnUse" x="473.249" y="11" width="1029.914" height="667.613">
		<feColorMatrix  type="matrix" values="1 0 0 0 0  0 1 0 0 0  0 0 1 0 0  0 0 0 1 0"/>
	</filter>
</defs>
<mask maskUnits="userSpaceOnUse" x="473.249" y="11" width="1029.914" height="667.613" id="SVGID_1_">
	<g filter="url(#Adobe_OpacityMaskFilter)">
		<g>
			<path fill="#E30613" d="M1120.502,650.72h1.362v-4.707C1121.48,647.598,1121.037,649.168,1120.502,650.72z"/>
			<path fill="#E30613" d="M326.696,498.555l0.355-0.276c0,0,8.053-17.479,33.793-18.866c36.776-1.988,50.156,27.493,48.067,46.915
				c10.933-1.83,40.752,2.623,49.679,16.459c12.92-10.14,24.851-11.987,35.781-11.987c6.063,0,8.172-0.179,10.159,0.159
				c2.604,0.438,5.029,1.729,15.685,5.367c11.929-15.664,26.838-21.211,39.739-21.211c4.191,0,8.747,0.577,13.357,1.907
				c2.246,0.438,4.771,1.332,8.012,3.121c3.24,1.608,6.424,3.657,9.441,6.201c4.492-2.899,9.959-4.593,15.847-4.593
				c15.362,0,27.83,11.551,27.83,25.823v0.082c0.396,0.436,0.812,0.873,1.213,1.33c1.809-11.192,14.591-19.86,30.098-19.86h0.556
				c1.593-26.457,23.836-38.524,42.522-40.671c3.377-0.538,6.916-0.815,10.572-0.815c21.807,0,39.559,10.119,40.233,22.763
				c0.52,0.479,0.877,0.733,1.017,0.733c0.2,0,0.457-0.059,0.772-0.178c4.771-6.303,12.646-10.416,21.569-10.416
				c12.562,0,23.062,8.15,25.704,19.045c18.07-10.419,28.884-13.042,46.357-13.042c27.811,0,59.615,12.9,76.514,48.863
				c4.969-1.852,11.927-3.701,14.908-3.701c7.197,0,13.578,1.515,22.106,9.347c10.976-9.264,26.56-15.05,43.854-15.05
				c31.628,0,57.551,19.384,59.957,43.993c3.876-0.815,7.93-1.312,12.104-1.252c17.362,0.288,32.729,10.146,37.359,32.001
				l70-678.383H324.713v555.074C325.37,497.806,326.022,498.164,326.696,498.555z"/>
		</g>
	</g>
</mask>
<linearGradient id="SVGID_2_" gradientUnits="userSpaceOnUse" x1="-561.0498" y1="107.0205" x2="-457.4401" y2="283.4722" gradientTransform="matrix(1 0 0 1 1358 95.2305)">
	<stop  offset="0" style="stop-color:#000000"/>
	<stop  offset="1" style="stop-color:#000000;stop-opacity:0"/>
</linearGradient>
<path opacity="0.5" mask="url(#SVGID_1_)" fill="url(#SVGID_2_)" enable-background="new    " d="M965.588,23.788v10.248h-28.972V11
	H485.898l-12.649,366.322l246.204,301.291h783.71L965.588,23.788z M928,350H507V48h421V350L928,350z"/>
<defs>
	<filter id="Adobe_OpacityMaskFilter_1_" filterUnits="userSpaceOnUse" x="83.333" y="117.63" width="314.666" height="439.642">
		<feColorMatrix  type="matrix" values="1 0 0 0 0  0 1 0 0 0  0 0 1 0 0  0 0 0 1 0"/>
	</filter>
</defs>
<mask maskUnits="userSpaceOnUse" x="83.333" y="117.63" width="314.666" height="439.642" id="SVGID_3_">
	<g filter="url(#Adobe_OpacityMaskFilter_1_)">
		<path fill="#FFFFFF" d="M335,135h-6l0.002-2.369c0-0.742-0.263-0.631-1.002-0.631h-37c-0.739,0-1.996-0.111-1.996,0.631L289,135
			H157c-19.04,0-35.003,14.605-35.003,33.7v13.023h-0.999c-0.721,0-0.998,0.258-0.998,1.002v20.037c0,0.741,0.277,1.001,0.998,1.001
			h0.999v12.024c-0.719,0-1.997,0.257-1.997,1.001v15.029c0,0.739,1.278,1.001,1.997,1.001v26.049c-0.719,0-1.997,1.262-1.997,2.005
			v14.024c0,0.741,1.278,1.003,1.997,1.003v343.182c0,19.076,15.84,34.548,34.898,34.548h178.606
			c19.06,0,34.498-15.472,34.498-34.548V168.84C370,149.762,354.059,135,335,135z M245.001,152.63c2.2,0,3.999,1.78,3.999,4
			c0,2.198-1.799,4-3.999,4c-2.218,0-4.001-1.802-4.001-4C241,154.41,242.783,152.63,245.001,152.63z M231.001,173H261
			c2.201,0,4,2.003,4,4.501c0,2.474-1.799,4.499-4,4.499h-29.999c-2.22,0-4.001-2.025-4.001-4.499
			C227,175.003,228.781,173,231.001,173z M138,583V200h216.001L354,583H138z"/>
	</g>
</mask>
<path mask="url(#SVGID_3_)" fill="#FFFFFF" d="M104.903,539.477c17.213,0,32.687,6.865,43.478,17.795
	c7.225-20.72,29.683-38.13,56.005-31.905c16.595-29.903,48.319-40.132,74.122-40.132c14.812,0,27.661,2.699,46.238,13.472
	l0.36-0.279c0,0,8.108-17.598,34.026-18.997c18.509-1.001,31.133,5.915,38.867,15.525V117.63H83.333v425.648
	C90.017,540.832,97.288,539.477,104.903,539.477z"/>
<g>
	<rect x="273.047" y="381.848" fill="#FFFFFF" width="3" height="0.898"/>
	<rect x="277.052" y="381.848" fill="#FFFFFF" width="3.001" height="0.898"/>
	<rect x="273.047" y="391.933" fill="#FFFFFF" width="3" height="0.925"/>
	<rect x="277.052" y="391.933" fill="#FFFFFF" width="3.001" height="0.925"/>
	<rect x="276.047" y="382.746" fill="#FFFFFF" width="1.005" height="9.187"/>
</g>
<g>
	<rect x="754.169" y="230.866" fill="#FFFFFF" width="2.002" height="1.089"/>
	<rect x="751.168" y="230.866" fill="#FFFFFF" width="1.999" height="1.089"/>
	<rect x="754.169" y="240.66" fill="#FFFFFF" width="2.002" height="1.089"/>
	<rect x="751.168" y="240.66" fill="#FFFFFF" width="1.999" height="1.089"/>
	<rect x="753.167" y="231.955" fill="#FFFFFF" width="1.002" height="8.705"/>
</g>
<g>
	<g opacity="0.3">
		<path fill="#010202" d="M217.566,299c-3.924,0-7.008,3.926-7.008,7.83v58.049c0,3.922,3.518,7.121,7.442,7.121h59
			c3.458,0,7-2.694,7-8v-57c0-3.904-3.483-8-7.387-8H217.566L217.566,299z M217,306h60.619v59.879H217V306z"/>
	</g>
	<g>
		<g>
			<path fill="#B33C39" d="M217,299c-3.924,0-7.008,3.36-7.008,7.264v58.05c0,3.922,3.084,7.007,7.008,7.007h59.047
				c3.904,0,7.007-3.085,7.007-7.007v-58.05c0-3.903-3.103-7.264-7.007-7.264H217z M216,305h61v60h-61V305z"/>
		</g>
	</g>
</g>
<g>
	<path fill="#FFFFFF" d="M213.414,385.113c0,0.271,0.074,0.502,0.223,0.684c0.148,0.185,0.346,0.339,0.592,0.469
		c0.246,0.132,0.529,0.244,0.849,0.345c0.319,0.098,0.647,0.195,0.985,0.297c0.433,0.133,0.837,0.274,1.211,0.432
		c0.373,0.154,0.697,0.343,0.971,0.564c0.274,0.221,0.489,0.482,0.646,0.79c0.158,0.306,0.236,0.673,0.236,1.102
		c0,0.456-0.094,0.865-0.28,1.229c-0.188,0.362-0.449,0.672-0.787,0.925c-0.337,0.253-0.743,0.445-1.218,0.582
		c-0.475,0.134-1.001,0.2-1.58,0.2c-0.434,0-0.845-0.035-1.235-0.108s-0.745-0.175-1.067-0.305
		c-0.321-0.132-0.603-0.282-0.845-0.458c-0.241-0.178-0.431-0.368-0.567-0.578c-0.037-0.068-0.055-0.146-0.055-0.232
		c0-0.082,0.018-0.167,0.055-0.253c0.036-0.087,0.083-0.166,0.14-0.236c0.058-0.068,0.121-0.129,0.191-0.175
		c0.071-0.045,0.141-0.066,0.209-0.066c0.078,0,0.156,0.023,0.236,0.073c0.08,0.053,0.158,0.103,0.236,0.15
		c0.146,0.096,0.313,0.19,0.502,0.284s0.397,0.177,0.623,0.25s0.47,0.132,0.732,0.178c0.262,0.046,0.539,0.068,0.831,0.068
		s0.563-0.027,0.814-0.082c0.25-0.057,0.468-0.14,0.653-0.25c0.185-0.111,0.329-0.252,0.434-0.421
		c0.105-0.168,0.158-0.369,0.158-0.604c0-0.301-0.075-0.548-0.227-0.739c-0.15-0.189-0.349-0.354-0.595-0.487
		s-0.527-0.248-0.842-0.343s-0.636-0.191-0.965-0.299c-0.123-0.041-0.269-0.091-0.438-0.148c-0.169-0.061-0.339-0.124-0.51-0.195
		c-0.171-0.07-0.333-0.144-0.485-0.219c-0.153-0.075-0.277-0.146-0.373-0.215c-0.835-0.415-1.252-1.118-1.252-2.107
		c0-0.438,0.095-0.829,0.283-1.174c0.189-0.344,0.451-0.636,0.784-0.875c0.333-0.24,0.725-0.422,1.177-0.548
		c0.451-0.125,0.941-0.188,1.471-0.188c0.702,0,1.329,0.104,1.882,0.307c0.552,0.201,1.028,0.508,1.43,0.912
		c0.059,0.063,0.1,0.133,0.123,0.201c0.022,0.071,0.034,0.147,0.034,0.229c0,0.077-0.012,0.157-0.034,0.239
		c-0.023,0.082-0.06,0.155-0.109,0.226c-0.051,0.068-0.115,0.125-0.195,0.168s-0.177,0.064-0.291,0.064
		c-0.127,0-0.271-0.068-0.431-0.205c-0.123-0.086-0.267-0.175-0.431-0.265c-0.165-0.09-0.345-0.168-0.541-0.234
		c-0.196-0.068-0.406-0.124-0.629-0.168c-0.224-0.043-0.459-0.064-0.705-0.064c-0.242,0-0.482,0.023-0.722,0.071
		c-0.24,0.048-0.456,0.123-0.65,0.226c-0.193,0.104-0.351,0.235-0.472,0.397C213.473,384.692,213.414,384.885,213.414,385.113z"/>
	<path fill="#FFFFFF" d="M220.53,387.569c0-0.769,0.103-1.468,0.308-2.099c0.205-0.632,0.507-1.174,0.906-1.625
		c0.399-0.452,0.893-0.802,1.481-1.051c0.588-0.248,1.266-0.373,2.032-0.373c0.771,0,1.449,0.122,2.035,0.366
		s1.076,0.59,1.471,1.037c0.395,0.446,0.692,0.981,0.893,1.61c0.201,0.628,0.302,1.322,0.302,2.091c0,0.383-0.037,0.748-0.109,1.095
		c-0.073,0.347-0.177,0.673-0.312,0.979c-0.135,0.308-0.296,0.592-0.482,0.854c-0.188,0.265-0.395,0.504-0.623,0.719h1.245
		c0.11,0,0.206,0.021,0.288,0.055c0.082,0.036,0.15,0.088,0.205,0.147c0.055,0.062,0.096,0.13,0.123,0.205s0.041,0.153,0.041,0.235
		c0,0.083-0.014,0.16-0.041,0.238c-0.027,0.077-0.068,0.146-0.123,0.208c-0.055,0.062-0.123,0.112-0.205,0.15
		c-0.082,0.039-0.178,0.061-0.288,0.063c-0.109,0.007-0.265,0.013-0.465,0.02c-0.201,0.007-0.421,0.012-0.66,0.017
		c-0.239,0.005-0.484,0.011-0.735,0.016s-0.482,0.008-0.694,0.011c-0.212,0.002-0.391,0.004-0.534,0.007
		c-0.144,0.002-0.229,0.003-0.256,0.003c-0.22,0.05-0.412,0.089-0.578,0.116c-0.167,0.027-0.332,0.041-0.496,0.041
		c-0.767,0-1.444-0.124-2.032-0.373c-0.589-0.248-1.082-0.599-1.481-1.05s-0.701-0.992-0.906-1.621
		C220.633,389.033,220.53,388.335,220.53,387.569z M222.466,387.569c0,0.547,0.054,1.053,0.161,1.516s0.274,0.861,0.503,1.197
		c0.228,0.335,0.518,0.598,0.869,0.786c0.351,0.188,0.771,0.282,1.259,0.282c0.487,0,0.907-0.095,1.259-0.282
		c0.351-0.188,0.641-0.451,0.868-0.786c0.229-0.336,0.397-0.734,0.507-1.197s0.164-0.969,0.164-1.516
		c0-0.543-0.054-1.046-0.161-1.511c-0.106-0.463-0.274-0.861-0.503-1.198c-0.228-0.339-0.519-0.604-0.872-0.794
		c-0.353-0.191-0.774-0.287-1.262-0.287c-0.488,0-0.909,0.096-1.263,0.287c-0.354,0.189-0.643,0.454-0.869,0.794
		c-0.226,0.337-0.392,0.735-0.499,1.198C222.52,386.523,222.466,387.026,222.466,387.569z"/>
	<path fill="#FFFFFF" d="M231.894,383.532c0-0.146,0.026-0.274,0.079-0.386c0.052-0.112,0.12-0.204,0.205-0.277
		c0.084-0.073,0.181-0.128,0.29-0.164c0.11-0.037,0.224-0.055,0.343-0.055c0.113,0,0.226,0.018,0.335,0.055
		c0.109,0.036,0.208,0.091,0.294,0.164c0.087,0.073,0.156,0.165,0.209,0.277c0.053,0.109,0.079,0.238,0.079,0.386v5.535
		c0,0.388,0.062,0.722,0.188,1.002c0.126,0.279,0.291,0.514,0.496,0.696c0.205,0.186,0.439,0.321,0.701,0.41
		c0.263,0.089,0.53,0.134,0.804,0.134c0.278,0,0.549-0.045,0.812-0.134c0.262-0.089,0.496-0.226,0.701-0.41
		c0.205-0.184,0.37-0.417,0.496-0.696c0.125-0.28,0.188-0.614,0.188-1.002v-5.535c0-0.146,0.026-0.274,0.079-0.386
		c0.052-0.112,0.122-0.204,0.209-0.277c0.086-0.073,0.185-0.128,0.294-0.164c0.109-0.037,0.224-0.055,0.342-0.055
		c0.114,0,0.226,0.018,0.335,0.055c0.109,0.036,0.208,0.091,0.295,0.164c0.086,0.073,0.156,0.165,0.208,0.277
		c0.053,0.109,0.079,0.238,0.079,0.386v5.59c0,0.603-0.107,1.127-0.321,1.573c-0.215,0.445-0.505,0.817-0.869,1.113
		c-0.365,0.299-0.793,0.521-1.283,0.664c-0.49,0.146-1.012,0.221-1.563,0.221s-1.071-0.073-1.56-0.221
		c-0.489-0.146-0.914-0.365-1.279-0.664c-0.365-0.296-0.653-0.668-0.865-1.113c-0.212-0.446-0.318-0.973-0.318-1.573v-5.59H231.894z
		"/>
	<path fill="#FFFFFF" d="M250.216,391.407c0.032,0.092,0.048,0.183,0.048,0.271c0,0.123-0.026,0.234-0.078,0.332
		c-0.053,0.101-0.123,0.184-0.209,0.25c-0.087,0.068-0.185,0.121-0.294,0.157c-0.11,0.036-0.222,0.055-0.336,0.055
		c-0.169,0-0.327-0.047-0.476-0.141c-0.147-0.093-0.247-0.24-0.297-0.441l-0.712-1.824h-4.386l-0.704,1.824
		c-0.055,0.206-0.154,0.354-0.298,0.445s-0.298,0.137-0.462,0.137c-0.109,0-0.219-0.019-0.328-0.055s-0.207-0.089-0.291-0.157
		c-0.084-0.066-0.153-0.148-0.205-0.246c-0.053-0.096-0.079-0.201-0.079-0.32c0-0.045,0.004-0.094,0.011-0.142
		c0.007-0.048,0.021-0.097,0.044-0.146l2.874-7.186c0.113-0.317,0.228-0.58,0.342-0.781c0.114-0.203,0.236-0.362,0.366-0.479
		c0.13-0.116,0.271-0.197,0.424-0.242c0.153-0.046,0.323-0.066,0.51-0.066c0.191,0,0.365,0.021,0.521,0.069
		c0.154,0.05,0.297,0.134,0.427,0.25c0.131,0.118,0.252,0.279,0.366,0.482c0.114,0.203,0.226,0.459,0.336,0.77L250.216,391.407z
		 M245.659,384.053l-1.806,4.864h3.633l-1.8-4.864H245.659z"/>
	<path fill="#FFFFFF" d="M251.885,383.539c0-0.123,0.024-0.239,0.072-0.349c0.048-0.11,0.112-0.204,0.194-0.284
		c0.082-0.079,0.18-0.146,0.291-0.191s0.229-0.071,0.353-0.071h3.078c0.461,0,0.904,0.036,1.331,0.109
		c0.427,0.072,0.804,0.204,1.133,0.396c0.328,0.188,0.592,0.443,0.79,0.77c0.198,0.323,0.297,0.736,0.297,1.238
		c0,0.271-0.042,0.529-0.126,0.771c-0.085,0.242-0.212,0.459-0.383,0.65c-0.172,0.189-0.389,0.354-0.65,0.492
		c-0.263,0.138-0.573,0.238-0.934,0.309v0.027c0.342,0.05,0.625,0.13,0.848,0.237c0.224,0.109,0.405,0.253,0.544,0.43
		c0.14,0.176,0.243,0.384,0.312,0.626c0.068,0.241,0.121,0.516,0.157,0.818c0.032,0.274,0.06,0.533,0.082,0.777
		c0.023,0.244,0.044,0.459,0.062,0.646c0.019,0.219,0.034,0.419,0.048,0.602v0.082c0,0.137-0.026,0.258-0.078,0.363
		c-0.053,0.104-0.121,0.19-0.205,0.263c-0.085,0.071-0.181,0.125-0.288,0.161c-0.106,0.036-0.218,0.055-0.331,0.055
		c-0.105,0-0.209-0.016-0.312-0.048s-0.196-0.08-0.28-0.144c-0.085-0.064-0.155-0.146-0.213-0.246
		c-0.057-0.103-0.095-0.218-0.112-0.352c-0.051-0.485-0.092-0.914-0.123-1.278c-0.032-0.363-0.069-0.679-0.113-0.939
		c-0.043-0.263-0.102-0.479-0.174-0.646c-0.073-0.17-0.175-0.302-0.305-0.396c-0.13-0.097-0.297-0.163-0.5-0.202
		s-0.455-0.059-0.756-0.059h-1.895v3.439c0,0.146-0.026,0.273-0.079,0.385c-0.053,0.108-0.122,0.198-0.209,0.271
		c-0.086,0.071-0.184,0.125-0.29,0.161c-0.107,0.036-0.218,0.055-0.332,0.055s-0.225-0.019-0.332-0.055s-0.203-0.09-0.287-0.161
		c-0.085-0.07-0.153-0.16-0.205-0.271c-0.053-0.109-0.079-0.236-0.079-0.385v-8.059h-0.001V383.539z M255.162,386.912
		c0.282,0,0.567-0.016,0.855-0.044c0.287-0.03,0.547-0.097,0.779-0.202c0.232-0.104,0.422-0.258,0.568-0.458
		c0.146-0.201,0.219-0.475,0.219-0.821c0-0.342-0.064-0.609-0.191-0.808c-0.128-0.195-0.292-0.344-0.493-0.444
		c-0.2-0.101-0.424-0.164-0.67-0.189c-0.246-0.027-0.486-0.041-0.719-0.041h-1.812v3.01L255.162,386.912L255.162,386.912z"/>
	<path fill="#FFFFFF" d="M262.503,392.481c-0.119,0-0.231-0.024-0.339-0.072s-0.202-0.111-0.284-0.191
		c-0.082-0.079-0.148-0.173-0.198-0.28c-0.05-0.105-0.075-0.22-0.075-0.339v-8.071c0-0.113,0.021-0.227,0.065-0.331
		c0.043-0.107,0.104-0.202,0.185-0.284c0.079-0.082,0.172-0.147,0.276-0.195c0.105-0.048,0.22-0.07,0.343-0.07h4.98
		c0.114,0,0.213,0.021,0.298,0.059c0.084,0.039,0.154,0.09,0.212,0.154c0.057,0.062,0.1,0.136,0.127,0.215
		c0.027,0.08,0.041,0.164,0.041,0.25c0,0.082-0.014,0.164-0.041,0.246c-0.027,0.082-0.07,0.153-0.127,0.22
		c-0.058,0.062-0.128,0.115-0.212,0.153c-0.085,0.039-0.184,0.059-0.298,0.059h-4.063v2.771h3.804c0.113,0,0.214,0.02,0.301,0.059
		c0.087,0.038,0.158,0.09,0.216,0.153c0.057,0.062,0.099,0.136,0.126,0.216c0.027,0.08,0.041,0.163,0.041,0.25
		c0,0.082-0.015,0.164-0.044,0.246c-0.03,0.082-0.073,0.153-0.13,0.219c-0.058,0.062-0.128,0.115-0.212,0.154
		c-0.085,0.038-0.185,0.058-0.298,0.058h-3.804v3.004h4.214c0.114,0,0.213,0.021,0.298,0.06c0.084,0.037,0.155,0.091,0.212,0.152
		c0.057,0.063,0.1,0.137,0.127,0.216c0.027,0.079,0.041,0.163,0.041,0.249c0,0.082-0.014,0.165-0.041,0.247
		c-0.027,0.082-0.07,0.154-0.127,0.221c-0.057,0.062-0.128,0.113-0.212,0.151c-0.085,0.039-0.184,0.061-0.298,0.061h-5.104V392.481
		L262.503,392.481z"/>
</g>
<g>
	<path fill="#FFFFFF" d="M691.324,233.739c0,0.273,0.074,0.502,0.223,0.684c0.148,0.183,0.346,0.339,0.592,0.469
		s0.529,0.244,0.851,0.343c0.317,0.098,0.646,0.197,0.983,0.297c0.435,0.133,0.837,0.276,1.211,0.432
		c0.373,0.154,0.697,0.343,0.973,0.564c0.272,0.221,0.488,0.484,0.646,0.79c0.158,0.306,0.236,0.673,0.236,1.102
		c0,0.456-0.094,0.865-0.28,1.228c-0.188,0.363-0.449,0.671-0.787,0.924c-0.337,0.253-0.742,0.447-1.218,0.582
		c-0.475,0.134-1.001,0.201-1.58,0.201c-0.434,0-0.845-0.036-1.233-0.109c-0.392-0.073-0.746-0.175-1.067-0.305
		s-0.604-0.282-0.845-0.458c-0.241-0.176-0.433-0.368-0.567-0.578c-0.037-0.068-0.055-0.146-0.055-0.232
		c0-0.082,0.018-0.167,0.055-0.253c0.036-0.087,0.083-0.166,0.14-0.236c0.06-0.07,0.121-0.129,0.191-0.175
		c0.07-0.045,0.141-0.068,0.209-0.068c0.078,0,0.156,0.025,0.236,0.075c0.08,0.051,0.156,0.101,0.234,0.15
		c0.146,0.096,0.313,0.19,0.502,0.284c0.189,0.094,0.397,0.177,0.623,0.25c0.228,0.073,0.471,0.132,0.732,0.178
		s0.539,0.068,0.831,0.068s0.562-0.027,0.812-0.082c0.25-0.055,0.468-0.138,0.653-0.25c0.186-0.111,0.329-0.252,0.434-0.421
		c0.105-0.168,0.158-0.369,0.158-0.602c0-0.301-0.074-0.548-0.227-0.739c-0.15-0.191-0.351-0.354-0.597-0.489
		c-0.245-0.134-0.525-0.248-0.842-0.342c-0.313-0.094-0.636-0.192-0.965-0.298c-0.123-0.041-0.269-0.091-0.438-0.15
		c-0.168-0.059-0.34-0.124-0.51-0.195c-0.172-0.07-0.334-0.144-0.484-0.219c-0.153-0.075-0.277-0.146-0.373-0.215
		c-0.835-0.415-1.252-1.118-1.252-2.107c0-0.438,0.095-0.829,0.283-1.174c0.188-0.344,0.449-0.636,0.783-0.875
		c0.332-0.24,0.726-0.422,1.178-0.548c0.449-0.125,0.939-0.188,1.471-0.188c0.702,0,1.329,0.102,1.882,0.305s1.028,0.508,1.43,0.913
		c0.061,0.064,0.102,0.132,0.123,0.202c0.022,0.071,0.034,0.147,0.034,0.229c0,0.077-0.012,0.157-0.034,0.239
		c-0.021,0.082-0.06,0.157-0.107,0.226c-0.052,0.068-0.115,0.125-0.195,0.168s-0.177,0.064-0.291,0.064
		c-0.127,0-0.271-0.068-0.431-0.205c-0.123-0.086-0.269-0.174-0.433-0.263c-0.164-0.09-0.345-0.168-0.541-0.236
		c-0.194-0.068-0.405-0.124-0.629-0.168c-0.224-0.043-0.459-0.064-0.705-0.064c-0.242,0-0.48,0.023-0.722,0.071
		c-0.24,0.048-0.456,0.123-0.65,0.226c-0.191,0.103-0.351,0.235-0.472,0.397C691.383,233.318,691.324,233.511,691.324,233.739z"/>
	<path fill="#FFFFFF" d="M698.439,236.195c0-0.767,0.104-1.466,0.309-2.097c0.205-0.632,0.507-1.174,0.906-1.625
		c0.397-0.452,0.893-0.802,1.479-1.051c0.588-0.248,1.268-0.373,2.032-0.373c0.771,0,1.449,0.122,2.035,0.366
		s1.076,0.59,1.471,1.037c0.396,0.446,0.692,0.983,0.895,1.611c0.199,0.627,0.302,1.323,0.302,2.09c0,0.383-0.037,0.748-0.109,1.095
		c-0.073,0.347-0.177,0.673-0.312,0.979s-0.297,0.59-0.482,0.854c-0.188,0.265-0.395,0.504-0.623,0.719h1.245
		c0.11,0,0.206,0.019,0.288,0.055s0.15,0.086,0.205,0.147s0.096,0.13,0.123,0.205s0.041,0.153,0.041,0.235
		c0,0.083-0.014,0.162-0.041,0.24c-0.027,0.077-0.068,0.146-0.123,0.208s-0.123,0.112-0.205,0.15
		c-0.082,0.039-0.178,0.061-0.288,0.065c-0.108,0.005-0.265,0.011-0.465,0.018c-0.201,0.007-0.421,0.012-0.66,0.017
		c-0.239,0.005-0.483,0.009-0.735,0.014c-0.25,0.005-0.48,0.008-0.692,0.011c-0.212,0.002-0.392,0.004-0.534,0.007
		c-0.145,0.002-0.229,0.003-0.256,0.003c-0.22,0.05-0.412,0.089-0.578,0.116c-0.167,0.027-0.332,0.041-0.496,0.041
		c-0.767,0-1.443-0.124-2.032-0.373c-0.589-0.248-1.081-0.599-1.479-1.05c-0.399-0.451-0.701-0.992-0.906-1.621
		C698.543,237.659,698.439,236.961,698.439,236.195z M700.376,236.195c0,0.547,0.054,1.053,0.161,1.516s0.273,0.861,0.503,1.197
		c0.228,0.335,0.518,0.598,0.869,0.786c0.351,0.189,0.771,0.284,1.259,0.284c0.487,0,0.907-0.095,1.259-0.284
		c0.353-0.188,0.643-0.451,0.868-0.786c0.229-0.336,0.396-0.734,0.507-1.197c0.111-0.463,0.164-0.969,0.164-1.516
		c0-0.543-0.054-1.046-0.161-1.509c-0.104-0.463-0.272-0.863-0.503-1.2c-0.228-0.338-0.519-0.603-0.872-0.794
		c-0.353-0.191-0.772-0.287-1.262-0.287s-0.909,0.096-1.263,0.287c-0.354,0.191-0.645,0.456-0.869,0.794
		c-0.228,0.337-0.394,0.737-0.499,1.2C700.43,235.149,700.376,235.652,700.376,236.195z"/>
	<path fill="#FFFFFF" d="M709.804,232.158c0-0.146,0.026-0.274,0.079-0.386s0.12-0.204,0.205-0.277
		c0.084-0.073,0.182-0.128,0.29-0.164c0.11-0.037,0.224-0.055,0.343-0.055c0.113,0,0.228,0.018,0.335,0.055
		c0.109,0.036,0.208,0.091,0.294,0.164c0.088,0.073,0.156,0.165,0.209,0.277c0.055,0.111,0.079,0.24,0.079,0.386v5.535
		c0,0.388,0.062,0.722,0.188,1.002c0.126,0.281,0.291,0.514,0.496,0.698s0.438,0.321,0.701,0.41
		c0.263,0.089,0.528,0.134,0.804,0.134c0.278,0,0.549-0.045,0.812-0.134c0.264-0.089,0.496-0.226,0.701-0.41s0.37-0.417,0.496-0.698
		c0.125-0.28,0.188-0.614,0.188-1.002v-5.535c0-0.146,0.026-0.274,0.079-0.386c0.054-0.112,0.122-0.204,0.209-0.277
		c0.087-0.073,0.187-0.128,0.294-0.164c0.109-0.037,0.226-0.055,0.344-0.055c0.112,0,0.226,0.018,0.335,0.055
		c0.107,0.036,0.208,0.091,0.295,0.164c0.086,0.073,0.155,0.165,0.208,0.277c0.053,0.111,0.079,0.24,0.079,0.386v5.59
		c0,0.603-0.107,1.127-0.321,1.573c-0.215,0.447-0.505,0.819-0.869,1.115c-0.365,0.297-0.793,0.519-1.283,0.664
		c-0.488,0.145-1.012,0.219-1.562,0.219c-0.552,0-1.071-0.073-1.562-0.219c-0.489-0.146-0.914-0.367-1.277-0.664
		c-0.365-0.296-0.653-0.668-0.865-1.115c-0.212-0.446-0.318-0.971-0.318-1.573v-5.59H709.804z"/>
	<path fill="#FFFFFF" d="M728.126,240.033c0.032,0.092,0.048,0.183,0.048,0.273c0,0.123-0.025,0.234-0.078,0.332
		c-0.053,0.099-0.123,0.182-0.209,0.25c-0.087,0.068-0.185,0.121-0.294,0.157c-0.11,0.036-0.222,0.055-0.336,0.055
		c-0.169,0-0.327-0.047-0.476-0.141c-0.147-0.093-0.247-0.24-0.297-0.441l-0.713-1.826h-4.387l-0.704,1.826
		c-0.055,0.206-0.152,0.354-0.298,0.445c-0.144,0.091-0.298,0.137-0.462,0.137c-0.108,0-0.219-0.019-0.328-0.055
		c-0.107-0.036-0.207-0.089-0.291-0.157c-0.084-0.068-0.151-0.15-0.205-0.246c-0.053-0.096-0.077-0.203-0.077-0.322
		c0-0.045,0.004-0.092,0.011-0.14c0.007-0.048,0.021-0.097,0.044-0.147l2.874-7.184c0.112-0.319,0.228-0.58,0.342-0.783
		s0.236-0.362,0.366-0.479c0.13-0.116,0.271-0.197,0.424-0.242c0.153-0.046,0.323-0.068,0.51-0.068c0.191,0,0.365,0.023,0.521,0.071
		c0.153,0.048,0.297,0.132,0.427,0.25c0.131,0.118,0.252,0.279,0.366,0.482c0.113,0.203,0.226,0.459,0.336,0.77L728.126,240.033z
		 M723.569,232.679l-1.808,4.864h3.635l-1.802-4.864H723.569z"/>
	<path fill="#FFFFFF" d="M729.795,232.165c0-0.123,0.024-0.239,0.072-0.349s0.111-0.204,0.193-0.284
		c0.081-0.079,0.181-0.144,0.291-0.191c0.11-0.047,0.229-0.071,0.354-0.071h3.078c0.461,0,0.904,0.036,1.331,0.109
		c0.427,0.072,0.804,0.204,1.133,0.394c0.328,0.188,0.592,0.445,0.79,0.77c0.198,0.323,0.297,0.736,0.297,1.238
		c0,0.273-0.042,0.531-0.126,0.772c-0.085,0.242-0.212,0.459-0.383,0.65c-0.172,0.191-0.39,0.355-0.65,0.492
		c-0.263,0.138-0.573,0.24-0.934,0.309v0.027c0.342,0.05,0.625,0.13,0.848,0.239c0.224,0.109,0.405,0.252,0.544,0.428
		c0.141,0.176,0.243,0.384,0.312,0.626c0.066,0.241,0.121,0.516,0.156,0.82c0.031,0.274,0.061,0.533,0.081,0.777
		c0.023,0.244,0.046,0.459,0.062,0.646c0.019,0.219,0.034,0.419,0.048,0.602v0.082c0,0.137-0.026,0.258-0.078,0.363
		c-0.053,0.104-0.121,0.192-0.205,0.263c-0.085,0.071-0.181,0.125-0.288,0.161c-0.104,0.036-0.218,0.055-0.331,0.055
		c-0.104,0-0.209-0.016-0.312-0.048c-0.104-0.032-0.196-0.08-0.28-0.144c-0.085-0.064-0.155-0.146-0.213-0.246
		c-0.059-0.101-0.095-0.217-0.112-0.35c-0.051-0.487-0.092-0.914-0.123-1.279c-0.03-0.364-0.067-0.678-0.111-0.94
		c-0.044-0.263-0.104-0.478-0.175-0.646c-0.072-0.169-0.176-0.301-0.306-0.396c-0.13-0.097-0.297-0.163-0.5-0.202
		c-0.203-0.039-0.455-0.059-0.756-0.059h-1.896v3.441c0,0.146-0.025,0.273-0.078,0.384c-0.055,0.109-0.122,0.199-0.209,0.27
		c-0.088,0.071-0.186,0.125-0.29,0.161c-0.107,0.036-0.22,0.055-0.332,0.055c-0.114,0-0.227-0.019-0.332-0.055
		c-0.107-0.036-0.203-0.09-0.287-0.161c-0.085-0.07-0.153-0.16-0.205-0.27c-0.053-0.11-0.079-0.237-0.079-0.384V232.165
		L729.795,232.165z M733.072,235.538c0.281,0,0.565-0.015,0.854-0.044c0.287-0.03,0.547-0.097,0.779-0.202
		c0.23-0.104,0.422-0.258,0.566-0.458c0.146-0.201,0.221-0.475,0.221-0.821c0-0.342-0.064-0.611-0.191-0.808
		c-0.128-0.195-0.292-0.344-0.492-0.444c-0.199-0.101-0.425-0.164-0.671-0.191c-0.245-0.027-0.484-0.041-0.719-0.041h-1.812v3.01
		L733.072,235.538L733.072,235.538z"/>
	<path fill="#FFFFFF" d="M740.413,241.107c-0.119,0-0.231-0.024-0.339-0.072c-0.108-0.048-0.202-0.111-0.284-0.191
		c-0.082-0.079-0.147-0.173-0.198-0.28c-0.05-0.107-0.074-0.22-0.074-0.339v-8.073c0-0.113,0.021-0.225,0.064-0.331
		c0.043-0.107,0.104-0.202,0.186-0.284c0.078-0.082,0.173-0.147,0.275-0.195c0.105-0.048,0.22-0.071,0.343-0.071h4.98
		c0.114,0,0.213,0.02,0.298,0.058c0.084,0.039,0.154,0.09,0.212,0.154c0.058,0.063,0.101,0.136,0.127,0.215
		c0.027,0.08,0.041,0.164,0.041,0.25c0,0.082-0.014,0.164-0.041,0.246c-0.026,0.082-0.069,0.155-0.127,0.22
		c-0.058,0.063-0.128,0.115-0.212,0.153c-0.085,0.039-0.184,0.059-0.298,0.059h-4.063v2.771h3.806c0.111,0,0.214,0.02,0.301,0.059
		c0.087,0.038,0.158,0.09,0.216,0.153c0.059,0.064,0.1,0.136,0.126,0.216c0.027,0.08,0.041,0.163,0.041,0.25
		c0,0.082-0.015,0.164-0.044,0.246c-0.03,0.082-0.073,0.155-0.13,0.219c-0.06,0.064-0.128,0.115-0.212,0.154
		c-0.085,0.038-0.186,0.058-0.298,0.058h-3.806v3.004h4.216c0.112,0,0.213,0.02,0.298,0.058c0.084,0.039,0.154,0.091,0.212,0.154
		c0.057,0.063,0.1,0.136,0.127,0.216c0.026,0.079,0.041,0.163,0.041,0.249c0,0.082-0.015,0.165-0.041,0.247
		c-0.027,0.082-0.07,0.154-0.127,0.219c-0.058,0.063-0.128,0.115-0.212,0.153c-0.085,0.039-0.186,0.059-0.298,0.059h-5.104
		L740.413,241.107L740.413,241.107z"/>
</g>
<polygon display="none" fill="#89D0E6" points="698.471,374.74 589.52,302.98 679.439,397.62 "/>
<linearGradient id="SVGID_4_" gradientUnits="userSpaceOnUse" x1="-792.1411" y1="167.0352" x2="-792.1411" y2="589.7695" gradientTransform="matrix(1 0 0 1 1358 95.2305)">
	<stop  offset="0" style="stop-color:#FF8D7A"/>
	<stop  offset="0.5934" style="stop-color:#FF8D7A;stop-opacity:0.4"/>
	<stop  offset="1" style="stop-color:#FF8D7A;stop-opacity:0"/>
</linearGradient>
<path fill="url(#SVGID_4_)" enable-background="new    " d="M590.646,526.686c-3.041-2.562-6.245-4.625-9.511-6.241
	c-3.262-1.805-5.804-2.705-8.063-3.146c-4.646-1.34-9.23-1.922-13.451-1.922c-12.991,0-28.004,5.586-40.014,21.358
	c-10.729-3.662-13.175-4.965-15.793-5.404c-2.002-0.341-4.123-0.161-10.23-0.161c-11.008,0-23.02,1.862-36.028,12.071
	c-8.986-13.934-39.015-18.416-50.021-16.573c2.104-19.557-11.369-49.241-48.4-47.239c-25.918,1.399-34.026,18.997-34.026,18.997
	l-0.36,0.279c-18.577-10.771-31.427-13.472-46.238-13.472c-25.803,0-57.527,10.229-74.122,40.132
	c-26.322-6.225-48.78,11.188-56.005,31.905c-10.791-10.93-26.265-17.795-43.478-17.795c-28.825,0-52.824,19.256-58.008,44.737
	c-23.318,3.902-35.569,24.26-41.074,47.34c-5.004,21.02,9.668,55.064,37.031,55.064c12.19,0-8.006,75.062-8.006,75.062
	l225.947,81.065c107.11,53.265,231.812,100.084,340.562,100.084c213.155,0,289.898-120.103,396.348-212.175
	c81.411-23.7,130.511-54.947,129.129-97.103c-0.999-30.348-18.674-43.697-39.032-44.038c-4.203-0.061-8.285,0.44-12.188,1.264
	c-2.424-24.78-28.524-44.301-60.371-44.301c-17.414,0-33.107,5.826-44.156,15.154c-8.589-7.887-15.013-9.411-22.261-9.411
	c-3.004,0-10.009,1.864-15.014,3.729c-17.014-36.211-49.039-49.202-77.041-49.202c-17.598,0-28.483,2.643-46.681,13.134
	c-2.658-10.971-13.231-19.177-25.882-19.177c-8.985,0-16.916,4.141-21.719,10.487c-0.319,0.118-0.578,0.179-0.779,0.179
	c-0.139,0-0.501-0.258-1.021-0.739c-0.684-12.729-18.559-22.919-40.516-22.919c-3.682,0-7.244,0.279-10.646,0.821
	c-18.817,2.161-41.215,14.312-42.817,40.952h-0.56c-15.613,0-28.484,8.728-30.306,19.998c-0.4-0.46-0.821-0.901-1.223-1.342v-0.083
	c0-14.367-12.553-26.002-28.021-26.002C600.674,522.061,595.17,523.765,590.646,526.686z"/>
<g opacity="0.3">
	<path fill="#010202" d="M746.568,155.566h-51.002c-3.377,0-6,2.621-6,6v51c0,3.379,3.057,6.434,6.434,6.434h50c3.383,0,7-2.621,7-6
		v-51C753,158.622,749.951,155.566,746.568,155.566z M747.066,213H695v-52h52.066V213z"/>
</g>
<g>
	<g>
		<path fill="#B33C39" d="M746.002,155H695c-3.378,0-6,2.62-6,6v50.999c0,3.379,2.622,6.001,6,6.001h51c3.382,0,6-2.622,6-6.001V161
			C752,157.62,749.384,155,746.002,155z M747,213h-53v-53h53V213z"/>
	</g>
</g>
<path fill="#FFFFFF" d="M947,11H488c-11.809,0-22,9.565-22,21.378V366c0,11.81,10.192,21,22,21h459c11.811,0,22-9.191,22-21V32
	C969,20.187,958.811,11,947,11z M490,193.312c0,1.597-1.339,4.318-2.999,4.318S484,194.908,484,193.312v-14.384
	c0-1.577,1.341-4.298,3.001-4.298s2.999,2.721,2.999,4.298V193.312z M927,350H507V48h421v302H927z M948.564,207.724
	c-4.724,0-8.564-3.824-8.564-8.546c0-4.727,3.843-8.548,8.564-8.548c4.746,0,8.566,3.821,8.566,8.548
	C957.133,203.899,953.311,207.724,948.564,207.724z"/>
<path fill="none" d="M676.197,218.014v192.32h259.536V140.527H751.562v21.258v46.197v3.263c0,3.744-3.045,6.769-6.789,6.769H725.88
	h-30.628H676.197L676.197,218.014z"/>
<polygon fill="#D4D4D4" points="937.537,397 720,254 899.439,443.657 "/>
<defs>
	<filter id="Adobe_OpacityMaskFilter_2_" filterUnits="userSpaceOnUse" x="719.453" y="254.221" width="218.084" height="205.19">
		<feColorMatrix  type="matrix" values="1 0 0 0 0  0 1 0 0 0  0 0 1 0 0  0 0 0 1 0"/>
	</filter>
</defs>
<mask maskUnits="userSpaceOnUse" x="719.453" y="254.221" width="218.084" height="205.19" id="SVGID_7_">
	<g filter="url(#Adobe_OpacityMaskFilter_2_)">
		<polygon fill="#0686B2" points="899.439,443.657 904.528,414.533 790.307,315.978 862.533,421.564 		"/>
	</g>
</mask>
<g mask="url(#SVGID_7_)">
	<g>
		<g>
			<defs>
				<polygon id="SVGID_5_" points="937.537,397.858 719.453,254.221 899.439,443.657 				"/>
			</defs>
			<clipPath id="SVGID_6_">
				<use xlink:href="#SVGID_5_"  overflow="visible"/>
			</clipPath>
			<polygon clip-path="url(#SVGID_6_)" fill="#A9A9A9" points="739.488,266.23 924.546,426.545 897.619,459.411 			"/>
		</g>
	</g>
</g>
<polygon fill="#FFFFFF" points="719.453,254.221 904.528,414.533 844.657,441.474 "/>
<polygon fill="#FFFFFF" points="983.974,376.061 937,398 719.453,254.221 "/>
<linearGradient id="SVGID_8_" gradientUnits="userSpaceOnUse" x1="54.0034" y1="309.2969" x2="133.2537" y2="244.0466" gradientTransform="matrix(1 0 0 -1 679 506.1152)">
	<stop  offset="0" style="stop-color:#000000"/>
	<stop  offset="1" style="stop-color:#000000;stop-opacity:0"/>
</linearGradient>
<path opacity="0.08" fill="url(#SVGID_8_)" enable-background="new    " d="M752.74,160.31c0.164,0.545,0.26,1.112,0.26,1.69v51
	c0,3.379-3.617,6-7,6h-50c-0.434,0-0.862-0.052-1.279-0.147c-0.177-0.017-0.352-0.042-0.522-0.071l221.438,181.584v-107.09
	L752.74,160.31z"/>
<g>
	<linearGradient id="SVGID_9_" gradientUnits="userSpaceOnUse" x1="250.375" y1="339.1494" x2="350.2058" y2="438.9802">
		<stop  offset="0" style="stop-color:#000000"/>
		<stop  offset="0.9954" style="stop-color:#000000;stop-opacity:0"/>
	</linearGradient>
	<path opacity="0.1" fill="url(#SVGID_9_)" enable-background="new    " d="M283.054,303.141l-0.038,0.174
		c0.62,1.153,0.984,2.428,0.984,3.685v57c0,5.306-3.542,8-7,8h-59c-1.826,0-3.559-0.698-4.895-1.835
		c-0.038-0.024-0.074-0.05-0.111-0.075v0.348l139.117,139.136l68.678-68.696L283.054,303.141z"/>
</g>
</svg>
