<?xml version="1.0" encoding="utf-8"?>
<!-- Generator: Adobe Illustrator 16.0.4, SVG Export Plug-In . SVG Version: 6.00 Build 0)  -->
<!DOCTYPE svg PUBLIC "-//W3C//DTD SVG 1.1//EN" "http://www.w3.org/Graphics/SVG/1.1/DTD/svg11.dtd">
<svg version="1.1" id="Ebene_1" xmlns="http://www.w3.org/2000/svg" xmlns:xlink="http://www.w3.org/1999/xlink" x="0px" y="0px"
	 width="170px" height="80px" viewBox="0 0 170 80" enable-background="new 0 0 170 80" xml:space="preserve">
<g opacity="0.1">
	<rect x="2.885" y="2.885" fill="none" width="25.006" height="25.006"/>
	<g>
		
			<linearGradient id="SVGID_1_" gradientUnits="userSpaceOnUse" x1="204.9629" y1="-248.3438" x2="236.862" y2="-280.0024" gradientTransform="matrix(1 0 0 -1 -184.1152 -227.3848)">
			<stop  offset="0" style="stop-color:#000000"/>
			<stop  offset="1" style="stop-color:#000000;stop-opacity:0"/>
		</linearGradient>
		<path fill="url(#SVGID_1_)" d="M75.063,46.02L30.143,1.101c0.391,0.492,0.634,1.106,0.634,1.784v25.006
			c0,1.595-1.291,2.885-2.885,2.885H2.885c-0.591,0-1.14-0.179-1.599-0.484L46.06,75.064l21.791-21.791l-0.021-0.021L75.063,46.02z"
			/>
	</g>
</g>
<rect x="3.126" y="2.964" fill="none" width="25.006" height="25.007"/>
<g opacity="0.55">
	<path d="M28.664,3.474v25.19H3.474V3.474H28.664 M28.664,0.567H3.474c-1.606,0-2.907,1.301-2.907,2.907v25.19
		c0,1.606,1.301,2.906,2.907,2.906h25.19c1.606,0,2.906-1.3,2.906-2.906V3.474C31.57,1.868,30.27,0.567,28.664,0.567L28.664,0.567z"
		/>
</g>
<g>
	<path fill="#B23C39" d="M28.097,2.907v25.19H2.907V2.907H28.097 M28.097,0H2.907C1.301,0,0,1.301,0,2.907v25.19
		c0,1.606,1.301,2.906,2.907,2.906h25.19c1.606,0,2.906-1.3,2.906-2.906V2.907C31.003,1.301,29.703,0,28.097,0L28.097,0z"/>
</g>
<g>
	<path fill="#FFFFFF" d="M50.189,13.268c0,0.43,0.116,0.788,0.349,1.074c0.232,0.287,0.542,0.532,0.929,0.736
		c0.387,0.204,0.831,0.383,1.332,0.537c0.501,0.154,1.017,0.31,1.547,0.467c0.68,0.208,1.314,0.434,1.901,0.677
		c0.587,0.244,1.096,0.539,1.525,0.886c0.43,0.348,0.768,0.761,1.015,1.241c0.247,0.48,0.371,1.057,0.371,1.729
		c0,0.716-0.147,1.359-0.44,1.928c-0.294,0.569-0.706,1.053-1.235,1.45c-0.53,0.397-1.167,0.702-1.912,0.913
		c-0.745,0.211-1.572,0.317-2.481,0.317c-0.681,0-1.327-0.058-1.939-0.172c-0.612-0.115-1.171-0.274-1.676-0.478
		c-0.505-0.204-0.947-0.444-1.327-0.72c-0.38-0.275-0.677-0.578-0.892-0.908c-0.058-0.107-0.086-0.229-0.086-0.365
		c0-0.129,0.028-0.261,0.086-0.397c0.057-0.136,0.13-0.259,0.22-0.371c0.089-0.111,0.189-0.202,0.301-0.274
		c0.111-0.071,0.22-0.107,0.328-0.107c0.122,0,0.245,0.04,0.371,0.118c0.125,0.079,0.249,0.158,0.371,0.236
		c0.229,0.15,0.492,0.299,0.79,0.446c0.297,0.147,0.623,0.278,0.978,0.392c0.354,0.115,0.737,0.208,1.149,0.279
		c0.412,0.072,0.847,0.107,1.305,0.107s0.884-0.043,1.278-0.129s0.736-0.216,1.026-0.392c0.29-0.175,0.517-0.396,0.682-0.661
		c0.165-0.265,0.247-0.58,0.247-0.945c0-0.473-0.118-0.859-0.354-1.16c-0.236-0.301-0.548-0.557-0.935-0.768
		c-0.387-0.211-0.827-0.39-1.321-0.537c-0.494-0.146-0.999-0.302-1.515-0.467c-0.193-0.064-0.423-0.143-0.688-0.236
		c-0.265-0.093-0.532-0.195-0.8-0.306c-0.269-0.111-0.523-0.226-0.763-0.344c-0.24-0.118-0.435-0.231-0.585-0.338
		c-1.311-0.651-1.966-1.754-1.966-3.309c0-0.688,0.148-1.301,0.446-1.842c0.297-0.541,0.707-0.999,1.23-1.375
		c0.522-0.376,1.139-0.662,1.848-0.859c0.709-0.197,1.479-0.295,2.31-0.295c1.103,0,2.087,0.16,2.954,0.478
		c0.866,0.319,1.615,0.797,2.245,1.434c0.093,0.101,0.157,0.206,0.193,0.317s0.054,0.231,0.054,0.36
		c0,0.122-0.018,0.247-0.054,0.376c-0.036,0.129-0.093,0.247-0.172,0.354c-0.079,0.107-0.181,0.195-0.306,0.263
		s-0.278,0.102-0.457,0.102c-0.201,0-0.426-0.107-0.677-0.322c-0.193-0.136-0.419-0.274-0.677-0.414
		c-0.258-0.14-0.541-0.263-0.849-0.371c-0.308-0.107-0.638-0.195-0.988-0.263c-0.351-0.068-0.72-0.102-1.106-0.102
		c-0.38,0-0.757,0.038-1.133,0.113c-0.376,0.075-0.716,0.193-1.021,0.354c-0.305,0.161-0.552,0.369-0.741,0.623
		C50.284,12.604,50.189,12.91,50.189,13.268z"/>
	<path fill="#FFFFFF" d="M61.361,17.125c0-1.203,0.161-2.3,0.483-3.292c0.322-0.992,0.796-1.842,1.423-2.551
		c0.626-0.709,1.402-1.258,2.326-1.649c0.924-0.39,1.987-0.585,3.19-0.585c1.21,0,2.275,0.192,3.196,0.575
		c0.92,0.383,1.69,0.926,2.31,1.627c0.619,0.702,1.086,1.545,1.402,2.53c0.315,0.985,0.473,2.079,0.473,3.282
		c0,0.602-0.058,1.175-0.172,1.719c-0.115,0.544-0.278,1.057-0.489,1.536c-0.211,0.48-0.464,0.928-0.757,1.343
		c-0.294,0.416-0.62,0.792-0.978,1.128h1.955c0.172,0,0.322,0.029,0.451,0.086c0.129,0.058,0.236,0.134,0.322,0.231
		s0.15,0.204,0.193,0.322c0.043,0.118,0.064,0.242,0.064,0.371s-0.021,0.254-0.064,0.376s-0.107,0.231-0.193,0.328
		s-0.193,0.176-0.322,0.236c-0.129,0.061-0.279,0.095-0.451,0.102c-0.172,0.007-0.416,0.016-0.73,0.027
		c-0.315,0.011-0.661,0.02-1.037,0.027s-0.761,0.014-1.155,0.021c-0.394,0.007-0.757,0.012-1.09,0.016
		c-0.333,0.003-0.612,0.007-0.838,0.011c-0.226,0.003-0.36,0.005-0.403,0.005c-0.344,0.079-0.646,0.14-0.908,0.183
		s-0.521,0.064-0.779,0.064c-1.203,0-2.267-0.195-3.19-0.585c-0.923-0.39-1.699-0.94-2.326-1.649s-1.101-1.558-1.423-2.546
		C61.522,19.426,61.361,18.328,61.361,17.125z M64.401,17.125c0,0.859,0.084,1.653,0.252,2.379c0.168,0.727,0.431,1.354,0.79,1.88
		c0.358,0.526,0.812,0.938,1.364,1.235c0.551,0.297,1.21,0.446,1.977,0.446c0.766,0,1.425-0.148,1.977-0.446
		c0.551-0.297,1.006-0.709,1.364-1.235c0.358-0.526,0.623-1.153,0.795-1.88s0.258-1.52,0.258-2.379c0-0.852-0.084-1.642-0.252-2.369
		s-0.432-1.355-0.79-1.885c-0.358-0.53-0.815-0.945-1.37-1.246c-0.555-0.301-1.216-0.451-1.982-0.451
		c-0.767,0-1.427,0.15-1.982,0.451c-0.555,0.301-1.01,0.716-1.364,1.246c-0.354,0.53-0.616,1.159-0.784,1.885
		C64.485,15.483,64.401,16.272,64.401,17.125z"/>
	<path fill="#FFFFFF" d="M79.204,10.787c0-0.229,0.041-0.431,0.124-0.607c0.082-0.175,0.189-0.32,0.322-0.435
		c0.132-0.114,0.285-0.2,0.457-0.258c0.172-0.057,0.351-0.086,0.537-0.086c0.179,0,0.354,0.029,0.526,0.086
		c0.172,0.058,0.326,0.144,0.462,0.258c0.136,0.115,0.245,0.26,0.328,0.435c0.082,0.176,0.124,0.378,0.124,0.607v8.69
		c0,0.609,0.098,1.133,0.295,1.574c0.197,0.44,0.457,0.806,0.779,1.096c0.322,0.29,0.689,0.505,1.101,0.645
		C84.67,22.931,85.091,23,85.521,23c0.437,0,0.86-0.07,1.272-0.209c0.412-0.14,0.779-0.354,1.101-0.645
		c0.322-0.291,0.582-0.655,0.779-1.096c0.197-0.44,0.295-0.965,0.295-1.574v-8.69c0-0.229,0.041-0.431,0.124-0.607
		c0.082-0.175,0.191-0.32,0.328-0.435c0.136-0.114,0.29-0.2,0.462-0.258C90.055,9.429,90.234,9.4,90.42,9.4
		c0.18,0,0.354,0.029,0.525,0.086c0.173,0.058,0.326,0.144,0.463,0.258c0.136,0.115,0.244,0.26,0.328,0.435
		c0.082,0.176,0.123,0.378,0.123,0.607v8.776c0,0.945-0.168,1.769-0.504,2.471c-0.338,0.702-0.793,1.286-1.364,1.751
		c-0.573,0.466-1.245,0.813-2.015,1.042s-1.588,0.344-2.455,0.344c-0.867,0-1.683-0.115-2.448-0.344
		c-0.767-0.229-1.436-0.576-2.009-1.042c-0.573-0.465-1.026-1.049-1.359-1.751c-0.333-0.702-0.5-1.525-0.5-2.471L79.204,10.787
		L79.204,10.787z"/>
	<path fill="#FFFFFF" d="M107.973,23.151c0.049,0.144,0.074,0.287,0.074,0.43c0,0.193-0.042,0.367-0.124,0.521
		c-0.083,0.154-0.192,0.285-0.327,0.392c-0.137,0.107-0.291,0.19-0.463,0.247c-0.172,0.058-0.348,0.086-0.525,0.086
		c-0.266,0-0.515-0.073-0.748-0.22c-0.232-0.146-0.389-0.377-0.467-0.693l-1.117-2.868h-6.885l-1.106,2.868
		c-0.087,0.322-0.242,0.555-0.468,0.698c-0.226,0.144-0.467,0.215-0.725,0.215c-0.172,0-0.344-0.028-0.516-0.086
		c-0.172-0.057-0.324-0.14-0.457-0.247s-0.24-0.236-0.322-0.387c-0.083-0.15-0.124-0.318-0.124-0.505
		c0-0.071,0.005-0.145,0.017-0.22c0.011-0.075,0.033-0.152,0.069-0.231l4.513-11.279c0.179-0.501,0.357-0.911,0.537-1.23
		c0.178-0.318,0.371-0.569,0.574-0.752c0.204-0.183,0.426-0.31,0.666-0.381c0.24-0.071,0.506-0.107,0.801-0.107
		c0.301,0,0.572,0.038,0.815,0.113c0.243,0.075,0.467,0.206,0.671,0.392c0.204,0.187,0.396,0.439,0.575,0.757
		c0.179,0.319,0.354,0.722,0.526,1.208L107.973,23.151z M100.816,11.603l-2.836,7.638h5.705l-2.826-7.638H100.816z"/>
	<path fill="#FFFFFF" d="M110.593,10.797c0-0.193,0.038-0.376,0.113-0.548s0.177-0.32,0.306-0.446
		c0.129-0.125,0.281-0.226,0.457-0.301s0.36-0.113,0.553-0.113h4.834c0.724,0,1.42,0.058,2.09,0.172
		c0.668,0.115,1.262,0.321,1.777,0.618c0.516,0.297,0.93,0.7,1.241,1.208c0.312,0.509,0.468,1.157,0.468,1.944
		c0,0.43-0.066,0.834-0.199,1.214s-0.334,0.72-0.603,1.021c-0.269,0.301-0.608,0.559-1.021,0.773
		c-0.412,0.215-0.901,0.376-1.467,0.483v0.043c0.537,0.079,0.981,0.204,1.332,0.376c0.352,0.172,0.635,0.396,0.854,0.671
		c0.218,0.276,0.381,0.604,0.489,0.983c0.106,0.38,0.188,0.81,0.246,1.289c0.051,0.43,0.094,0.836,0.129,1.219
		c0.037,0.383,0.068,0.722,0.098,1.015c0.027,0.344,0.055,0.659,0.075,0.945v0.129c0,0.215-0.042,0.405-0.124,0.569
		c-0.083,0.165-0.19,0.303-0.322,0.414c-0.133,0.111-0.283,0.195-0.451,0.252c-0.168,0.058-0.342,0.086-0.521,0.086
		c-0.164,0-0.327-0.025-0.488-0.075c-0.161-0.05-0.309-0.125-0.439-0.226c-0.134-0.1-0.244-0.229-0.334-0.387
		c-0.09-0.157-0.148-0.34-0.177-0.548c-0.079-0.766-0.144-1.436-0.192-2.009c-0.051-0.573-0.109-1.065-0.178-1.477
		c-0.068-0.412-0.16-0.75-0.273-1.015c-0.115-0.265-0.274-0.473-0.479-0.623c-0.203-0.15-0.466-0.256-0.783-0.317
		c-0.319-0.061-0.715-0.091-1.188-0.091h-2.977v5.403c0,0.229-0.041,0.43-0.123,0.602c-0.084,0.172-0.192,0.313-0.328,0.424
		c-0.137,0.111-0.289,0.195-0.457,0.252c-0.168,0.058-0.342,0.086-0.521,0.086c-0.179,0-0.353-0.028-0.521-0.086
		c-0.168-0.057-0.318-0.141-0.45-0.252c-0.134-0.111-0.24-0.252-0.322-0.424c-0.083-0.172-0.124-0.372-0.124-0.602L110.593,10.797
		L110.593,10.797z M115.738,16.093c0.443,0,0.892-0.023,1.343-0.07c0.451-0.046,0.858-0.152,1.226-0.317
		c0.364-0.165,0.661-0.404,0.892-0.72c0.229-0.315,0.344-0.745,0.344-1.289c0-0.537-0.101-0.959-0.301-1.268
		c-0.201-0.308-0.458-0.541-0.773-0.698c-0.315-0.157-0.666-0.258-1.053-0.301c-0.388-0.043-0.763-0.064-1.128-0.064h-2.848v4.727
		H115.738z"/>
	<path fill="#FFFFFF" d="M127.266,24.837c-0.188,0-0.365-0.038-0.533-0.113c-0.168-0.075-0.316-0.175-0.445-0.301
		c-0.129-0.125-0.232-0.272-0.312-0.44c-0.078-0.168-0.117-0.345-0.117-0.532V10.776c0-0.179,0.033-0.353,0.102-0.521
		s0.165-0.317,0.29-0.446s0.271-0.231,0.435-0.306c0.166-0.075,0.344-0.113,0.537-0.113h7.82c0.18,0,0.334,0.031,0.467,0.091
		c0.133,0.061,0.243,0.142,0.333,0.242c0.089,0.101,0.156,0.213,0.199,0.338s0.063,0.256,0.063,0.392
		c0,0.129-0.021,0.258-0.063,0.387s-0.108,0.244-0.199,0.344c-0.09,0.101-0.2,0.181-0.333,0.242
		c-0.133,0.061-0.289,0.091-0.467,0.091h-6.381v4.351h5.973c0.18,0,0.336,0.031,0.473,0.091c0.137,0.061,0.25,0.142,0.338,0.242
		c0.09,0.101,0.156,0.213,0.199,0.338s0.064,0.256,0.064,0.392c0,0.129-0.023,0.258-0.07,0.387
		c-0.047,0.129-0.115,0.244-0.203,0.344c-0.09,0.101-0.201,0.181-0.334,0.242s-0.289,0.091-0.467,0.091h-5.973v4.716h6.617
		c0.179,0,0.334,0.031,0.467,0.091c0.132,0.061,0.242,0.142,0.333,0.242c0.089,0.101,0.155,0.213,0.198,0.338
		s0.064,0.256,0.064,0.392c0,0.129-0.021,0.258-0.064,0.387s-0.108,0.244-0.198,0.344c-0.091,0.101-0.201,0.181-0.333,0.242
		c-0.133,0.061-0.289,0.091-0.467,0.091L127.266,24.837L127.266,24.837z"/>
</g>
</svg>
